<svg width="198.000000" height="72.000000" viewBox="0 0 198 72" fill="none" xmlns="http://www.w3.org/2000/svg" xmlns:xlink="http://www.w3.org/1999/xlink">
	<desc>
			Created with Pixso.
	</desc>
	<defs>
		<clipPath id="clip13_1553">
			<rect rx="0.000000" width="197.000000" height="71.000000" transform="translate(0.500000 0.500000)" fill="white" fill-opacity="0"/>
		</clipPath>
	</defs>
	<g clip-path="url(#clip13_1553)">
		<path d="M49.4 49.02L49.4 14.6L67.42 14.6L67.42 18.91L53.14 18.91L53.14 29.5L65.96 29.5L65.96 33.81L53.14 33.81L53.14 44.6L68.42 44.6L68.42 48.92L49.4 48.92L49.4 49.02ZM87.35 49.02L81.16 39.88L74.97 49.02L70.61 49.02L79.07 36.79L70.15 24.15L75.06 24.15L81.16 33.61L87.35 24.15L92.17 24.15L83.71 36.79L91.72 49.02L87.35 49.02ZM97.72 45.32L97.72 62.28L93.99 62.28L93.99 36.9C93.99 30.42 98.36 23.54 105.18 23.54C112.1 23.54 117.28 28.47 117.28 36.59C117.28 44.5 112.01 49.95 106 49.95C103.09 49.95 99.18 48.51 97.72 45.32ZM113.37 36.59C113.37 31.04 110.19 27.75 104.55 28.06C101.82 28.16 97.63 30.42 97.99 38.34C98.09 40.91 100.45 45.73 105.64 45.73C110.1 45.73 113.37 42.86 113.37 36.59ZM120.47 49.02L120.47 24.15L124.2 24.15L124.2 26.83C126.02 24.46 128.84 23.64 131.84 23.64L131.84 28.16C131.39 28.06 126.93 27.44 124.2 34.02L124.2 49.13L120.47 49.13L120.47 49.02ZM132.84 36.59C132.84 29.39 137.39 23.54 143.67 23.54C151.5 23.54 154.41 29.4 154.41 36.9L154.41 38.95L136.94 38.95C137.21 43.68 140.94 46.15 144.4 46.04C146.95 45.94 148.68 45.12 150.5 43.06L152.95 45.94C150.68 48.41 147.77 50.05 144.22 50.05C137.58 49.95 132.84 44.4 132.84 36.59ZM143.4 27.75C139.85 27.75 137.12 31.24 136.94 35.05L150.5 35.05C150.5 31.35 148.13 27.75 143.4 27.75ZM156.32 45.53L159.05 42.76C158.96 42.76 160.42 44.4 160.6 44.5C161.23 45.12 161.87 45.53 162.69 45.74C165.06 46.45 169.33 46.25 169.7 42.55C169.88 40.49 168.51 39.36 166.97 38.64C164.97 37.82 162.78 37.51 160.78 36.49C158.5 35.36 157.05 33.4 157.05 30.53C157.05 23.02 166.51 21.79 170.79 25.28C170.97 25.49 173.06 27.65 172.97 27.65L170.24 30.12C168.88 28.26 167.6 27.34 164.69 27.34C163.24 27.34 161.23 28.06 160.87 29.81C160.32 32.27 162.78 33.2 164.42 33.71C166.6 34.33 168.97 34.74 170.88 36.07C173.52 37.93 174.16 41.93 173.15 45.02C172.06 48.41 168.79 49.74 165.88 49.84C162.42 50.05 159.41 48.82 156.96 46.04C156.78 46.04 156.32 45.53 156.32 45.53ZM175.52 45.53L178.25 42.76C178.16 42.76 179.61 44.4 179.8 44.5C180.43 45.12 181.07 45.53 181.89 45.74C184.25 46.45 188.53 46.25 188.9 42.55C189.08 40.49 187.71 39.36 186.17 38.64C184.16 37.82 181.98 37.51 179.98 36.49C177.7 35.36 176.25 33.4 176.25 30.53C176.25 23.02 185.71 21.79 189.99 25.28C190.17 25.49 192.26 27.65 192.17 27.65L189.44 30.12C188.08 28.26 186.8 27.34 183.89 27.34C182.44 27.34 180.43 28.06 180.07 29.81C179.52 32.27 181.98 33.2 183.62 33.71C185.8 34.33 188.17 34.74 190.08 36.07C192.72 37.93 193.36 41.93 192.35 45.02C191.26 48.41 187.99 49.74 185.07 49.84C181.62 50.05 178.61 48.82 176.16 46.04C175.97 46.04 175.52 45.53 175.52 45.53L175.52 45.53ZM193.26 24.15L193.26 21.48L192.44 21.48L192.44 20.97L194.63 20.97L194.63 21.48L193.81 21.48L193.81 24.15L193.26 24.15ZM197.36 24.15L197.36 21.69L196.54 24.15L196.36 24.15L195.54 21.69L195.54 24.15L195.08 24.15L195.08 20.97L195.81 20.97L196.54 23.13L197.27 20.97L198 20.97L198 24.15L197.36 24.15ZM24.11 49.02L21.38 40.8L6.64 40.8L3.91 49.02L0 49.02L11.82 14.6L16.1 14.6L27.84 49.02L24.11 49.02ZM13.83 19.53L8.28 36.59L19.83 36.59L13.83 19.53ZM30.3 49.02L34.12 49.02L34.12 14.6L30.3 14.6L30.3 49.02ZM39.85 49.02L43.67 49.02L43.67 24.67L39.85 24.67L39.85 49.02ZM47.31 16.76L47.31 16.34C44.4 16.24 42.03 13.57 41.94 10.28L41.4 10.28C41.31 13.57 38.94 16.24 36.03 16.34L36.03 16.76C38.94 16.86 41.31 19.53 41.4 22.82L41.94 22.82C42.03 19.53 44.4 16.86 47.31 16.76Z" fill="#000000" fill-opacity="1.000000" fill-rule="evenodd"/>
	</g>
</svg>
