<svg width="198.000000" height="72.000000" viewBox="0 0 198 72" fill="none" xmlns="http://www.w3.org/2000/svg" xmlns:xlink="http://www.w3.org/1999/xlink">
	<desc>
			Created with Pixso.
	</desc>
	<defs>
		<clipPath id="clip13_1536">
			<rect rx="0.000000" width="197.000000" height="70.999992" transform="translate(0.500000 0.500000)" fill="white" fill-opacity="0"/>
		</clipPath>
	</defs>
	<g clip-path="url(#clip13_1536)">
		<path d="M18.1 22.36L18.1 10.99L40.7 10.99L46.87 41.39L53.12 10.99L60.01 10.99L50 60.01L43.83 60.01L36.05 22.36L30.2 22.36L30.2 60.01L23.55 60.01L23.55 22.36L18.1 22.36Z" fill="#000000" fill-opacity="1.000000" fill-rule="evenodd"/>
		<path d="M6.97 33.44L6.97 20.79C14.42 19.94 14.26 34.15 6.97 33.44ZM12.98 60.01L20.59 60.01L14.18 40.4C22.11 35.57 19.95 10.7 11.13 10.99L0 10.99L0 60.01L6.97 60.01L6.97 41.82L12.98 60.01ZM138.86 10.99L146.71 10.99L154.16 60.01L148.63 60.01L147.35 51.34L138.06 51.34L136.78 60.01L131.41 60.01L138.86 10.99L138.86 10.99ZM145.99 42.39L139.42 42.39L142.71 20.65L145.99 42.39Z" fill="#000000" fill-opacity="1.000000" fill-rule="evenodd"/>
		<path d="M164.42 42.96L164.42 32.44L176.68 32.44L176.68 49.49C174.76 53.9 173.48 57.31 170.91 59.44C169.23 60.86 166.5 62 164.02 62C160.98 62 158.49 61 156.57 59.01C154.64 56.88 153.44 54.18 152.4 50.2C151.36 46.08 151.12 41.39 151.12 36.14C151.12 30.6 151.52 25.62 152.72 21.65C153.84 17.53 155.53 14.54 157.77 12.41C159.53 10.7 161.38 10 164.34 10C167.22 10 169.31 10.42 170.75 11.42C172.19 12.41 173.31 13.97 174.28 16.1C175.16 18.24 175.88 20.93 176.36 24.2L169.63 26.9C169.31 24.91 168.83 23.49 168.03 22.5C167.3 21.51 166.34 20.79 165.22 20.51C162.9 19.94 161.06 22.21 160.01 24.49C158.97 26.9 158.49 30.59 158.49 35.85C158.49 41.25 158.97 45.94 160.01 48.36C161.06 50.63 162.58 51.91 164.42 51.91C165.3 51.91 166.18 51.62 166.98 51.05C167.79 50.63 168.67 49.78 169.71 48.5L169.71 42.96L164.42 42.96L164.42 42.96ZM186.54 22.07L182.93 22.07L182.93 49.07L186.54 49.07C193.27 49.07 193.43 22.07 186.54 22.07ZM185.49 10.99L176.68 10.99L176.68 60.15L185.49 60.15C202 60.15 202.32 10.99 185.49 10.99Z" fill="#000000" fill-opacity="1.000000" fill-rule="evenodd"/>
		<path d="M53.12 60.01L136.05 60.01L136.05 10.99L53.12 10.99L53.12 60.01L53.12 60.01ZM54.72 57.45L134.53 57.45L134.53 13.69L54.72 13.69L54.72 57.45L54.72 57.45Z" fill="#000000" fill-opacity="1.000000" fill-rule="evenodd"/>
		<path d="M72.99 48.07L59.05 48.07L59.05 22.78L72.59 22.78L72.59 27.75L62.82 27.75L62.82 32.87L71.87 32.87L71.87 36.42L62.82 36.42L62.82 43.81L72.99 43.81L72.99 48.07ZM110.81 48.07L106.57 48.07L106.49 41.25C106.49 37.7 104 37.84 102.4 37.84L99.76 37.84L99.76 48.07L95.35 48.07L95.35 22.78L105.29 22.78C111.78 22.78 113.3 32.16 108.49 35.57C109.69 36.28 110.73 38.41 110.73 41.11L110.81 48.07L110.81 48.07ZM99.6 34L103.76 34C104.89 34 105.77 33.72 106.25 33.29C106.73 32.73 107.05 31.87 107.05 30.74C107.05 28.61 106.01 27.47 104 27.47L99.6 27.47L99.6 34ZM122.27 22.36C123.55 22.36 124.76 22.64 125.8 23.35C126.92 23.92 127.88 24.77 128.68 25.91C129.48 27.04 130.05 28.46 130.53 30.03C130.93 31.73 131.17 33.44 131.17 35.43C131.17 37.27 131.01 39.12 130.53 40.68C130.13 42.25 129.48 43.67 128.68 44.8C127.88 45.94 126.92 46.93 125.88 47.51C124.76 48.07 123.56 48.5 122.27 48.5C120.99 48.5 119.71 48.07 118.67 47.51C117.55 46.93 116.58 45.94 115.86 44.8C115.06 43.67 114.42 42.39 114.02 40.68C113.54 39.12 113.3 37.42 113.3 35.43C113.3 33.44 113.54 31.59 114.02 30.03C114.42 28.46 115.06 27.04 115.86 25.91C116.66 24.77 117.63 23.92 118.67 23.35C119.79 22.64 120.99 22.36 122.27 22.36ZM122.27 43.95C122.99 43.95 123.72 43.81 124.44 43.38C125.08 42.96 125.64 42.39 126.12 41.68C126.6 40.97 126.92 40.12 127.24 38.98C127.48 37.99 127.64 36.71 127.64 35.43C127.64 34.01 127.48 32.87 127.24 31.73C126.92 30.74 126.6 29.89 126.12 29.18C125.64 28.46 125.08 27.9 124.44 27.47C123.72 27.04 123.07 26.9 122.27 26.9C121.55 26.9 120.83 27.04 120.11 27.47C119.47 27.9 118.91 28.46 118.43 29.18C117.95 29.89 117.55 30.74 117.3 31.87C117.06 32.87 116.9 34.01 116.9 35.43C116.9 36.71 117.06 37.99 117.3 38.98C117.55 40.12 117.95 40.97 118.43 41.68C118.91 42.39 119.47 42.96 120.11 43.38C120.75 43.81 121.47 43.95 122.27 43.95ZM77.08 22.78L80.69 22.78L80.69 40.68C80.85 45.66 87.9 45.51 87.74 40.68L87.74 22.78L91.66 22.78L91.58 41.11C91.66 50.49 77.16 50.49 77.08 41.11L77.08 22.78Z" fill="#000000" fill-opacity="1.000000" fill-rule="evenodd"/>
	</g>
</svg>
