<svg width="198.000000" height="72.000000" viewBox="0 0 198 72" fill="none" xmlns="http://www.w3.org/2000/svg" xmlns:xlink="http://www.w3.org/1999/xlink">
	<desc>
			Created with Pixso.
	</desc>
	<defs>
		<clipPath id="clip13_1556">
			<rect rx="0.000000" width="197.000000" height="71.000000" transform="translate(0.500000 0.500000)" fill="white" fill-opacity="0"/>
		</clipPath>
	</defs>
	<g clip-path="url(#clip13_1556)">
		<path d="M72.2 32.88C72.39 29.42 76.13 26.75 80.53 26.9L80.65 26.91C84.56 26.72 87.93 29.06 88.17 32.12C88.19 32.37 88.18 32.63 88.16 32.88L72.2 32.88ZM80.64 21.49C70.07 21.49 65.44 27.05 63.97 31.75C63.56 33.02 63.36 34.32 63.36 35.63C63.3 38.72 64.49 41.75 66.76 44.29C70.19 47.75 75.46 49.77 81.05 49.78C86.75 49.94 90.56 49.18 93.48 47.88C94.06 47.59 94.34 47.03 94.17 46.51L94.17 42.9C94.17 42.17 93.6 41.82 92.79 42.26C89.38 43.98 85.33 44.74 81.3 44.43C76.55 44.38 72.59 41.56 72.07 37.86L95.55 37.86C96.08 37.86 96.51 37.52 96.52 37.11C96.93 32.07 95.07 21.49 80.64 21.49ZM23.74 44.84L13.42 44.84C12.1 44.81 10.82 44.46 9.76 43.83C8.66 43.23 8.01 42.23 8.03 41.17C8.03 39.71 9.29 36.78 15.57 36.78L23.74 36.78L23.74 44.84ZM31.4 32.83C31.4 29.14 30.35 26.33 28.09 24.4C25.82 22.46 21.26 21.49 17.04 21.49C12.8 21.48 8.63 22.35 4.95 24.02C4.72 24.13 4.58 24.32 4.58 24.54L4.9 28.61C4.99 29 5.47 29.27 5.97 29.2C6.14 29.18 6.29 29.12 6.42 29.03C11.6 26.53 17.81 26.06 20.97 27.32C22.75 28.12 23.81 29.63 23.74 31.23L23.74 31.82L15.1 31.82C11.39 31.82 0.01 32.91 0.01 41.1L0.01 41.19C-0.17 43.72 1.2 46.17 3.7 47.77C6.39 49.26 9.64 49.99 12.92 49.84L30.39 49.84C30.96 49.84 31.42 49.48 31.42 49.04L31.42 32.8L31.4 32.83ZM118.16 44.36C113.89 44.36 110.81 41.92 109.51 38.87C108.59 36.77 108.59 34.48 109.51 32.38C110.81 29.33 113.89 26.89 118.16 26.89C127.7 26.89 128.02 34.52 128.02 35.63C128.02 36.73 127.7 44.36 118.16 44.36ZM135.85 35.64C135.92 32.54 134.73 29.5 132.45 26.97C126.33 20.78 114.96 19.66 107.07 24.46C105.87 25.19 104.79 26.03 103.86 26.97C99.27 32.19 99.27 39.09 103.86 44.3C107.24 47.81 112.55 49.85 118.16 49.79C121.78 49.8 125.32 48.96 128.34 47.39L128.34 50.81C128.34 55.45 123.16 56.3 119.84 56.46C117.56 56.52 115.28 56.42 113.02 56.17C112.11 56.06 111.47 56.17 111.47 56.94L111.47 61.05C111.5 61.44 111.92 61.74 112.41 61.72C120.1 62.24 125.28 62.13 129.18 60.39C131.91 59.13 133.93 57.1 134.85 54.73C135.54 52.89 135.87 50.99 135.83 49.07L135.83 35.64L135.85 35.64ZM161.27 23.09L161.27 26.33C161.35 26.8 160.94 27.22 160.35 27.28C160.2 27.3 160.04 27.29 159.89 27.26C153.18 26.17 149.05 28.51 149.05 33.37L149.05 49.07C149.05 49.52 148.59 49.87 148.03 49.87L142.09 49.87C141.53 49.87 141.07 49.52 141.07 49.07L141.07 33.04C141 29.97 142.59 27.02 145.45 24.93C148.35 22.7 152.25 21.46 156.31 21.48C157.71 21.49 159.09 21.59 160.46 21.79C161.16 21.97 161.27 22.3 161.27 23.13L161.27 23.09L161.27 23.09ZM44.82 49.08C44.82 49.52 44.36 49.88 43.8 49.88L37.86 49.88C37.3 49.88 36.84 49.52 36.84 49.08L36.84 10.8C36.84 10.36 37.29 10 37.85 10L43.79 10C44.35 10 44.81 10.35 44.81 10.8L44.81 49.08L44.82 49.08ZM58.77 49.08C58.77 49.52 58.31 49.88 57.75 49.88L51.81 49.88C51.25 49.88 50.79 49.52 50.79 49.08L50.79 10.8C50.79 10.35 51.25 10 51.81 10L57.75 10C58.31 10 58.77 10.35 58.77 10.8L58.77 49.08ZM188.93 38.9C187.64 41.94 184.55 44.31 180.29 44.39C176.02 44.46 172.94 41.94 171.66 38.9C170.74 36.79 170.74 34.5 171.66 32.4C172.95 29.36 176.03 26.98 180.29 26.91C184.54 26.83 187.64 29.36 188.93 32.4C189.85 34.5 189.85 36.78 188.93 38.89L188.93 38.9ZM194.6 26.98C188.47 20.8 177.11 19.67 169.21 24.47C168.01 25.2 166.94 26.05 166.01 26.98C163.74 29.52 162.55 32.55 162.61 35.65C162.55 38.74 163.74 41.77 166.01 44.31C172.13 50.5 183.5 51.63 191.39 46.82C192.59 46.09 193.67 45.25 194.6 44.31C196.86 41.77 198.05 38.74 197.99 35.65C198.05 32.55 196.86 29.52 194.6 26.98Z" fill="#000000" fill-opacity="1.000000" fill-rule="evenodd"/>
	</g>
</svg>
