<svg width="198.000000" height="72.000000" viewBox="0 0 198 72" fill="none" xmlns="http://www.w3.org/2000/svg" xmlns:xlink="http://www.w3.org/1999/xlink">
	<desc>
			Created with Pixso.
	</desc>
	<defs>
		<clipPath id="clip13_1559">
			<rect rx="0.000000" width="197.000000" height="71.000000" transform="translate(0.500000 0.500000)" fill="white" fill-opacity="0"/>
		</clipPath>
	</defs>
	<g clip-path="url(#clip13_1559)">
		<path d="M38.66 37.74C42.69 37.74 46.71 37.77 50.72 37.72C51.68 37.71 51.97 36.62 51.39 35.21C49.97 31.72 47.98 29.85 45.45 29.73C42.32 29.59 39.21 33.25 38.66 37.74ZM38.47 45.52C40 54.15 46.57 56.84 50.34 50.6C50.77 49.87 51.14 48.97 51.75 48.64C52.76 48.1 53.67 48.45 54.38 49.81C55.1 51.17 55.15 52.96 54.42 54.64C52.99 57.9 51 59.92 48.73 60.97C43.89 63.18 39.63 61.26 36.34 54.91C33.05 48.55 32.48 41.14 34.56 33.54C36.64 25.98 40.39 22.14 45.35 21.96C50.83 21.76 55.75 28.42 56.94 37.37C57.48 41.41 55.53 45.47 52.95 45.51C48.58 45.57 44.2 45.52 39.83 45.52L38.47 45.52Z" fill="#000000" fill-opacity="1.000000" fill-rule="evenodd"/>
		<path d="M142.92 37.74C144.82 37.74 146.71 37.77 148.61 37.73C149.61 37.7 149.98 36.69 149.45 35.36C147.91 31.53 145.75 29.53 142.98 29.75C140.16 29.97 138.13 32.4 136.79 36.52C136.42 37.66 136.78 37.76 137.36 37.75C139.21 37.72 141.07 37.74 142.92 37.74ZM144.18 45.52C141.9 45.52 139.61 45.57 137.33 45.49C136.48 45.46 136.33 45.78 136.69 47.09C138.75 54.55 144.78 56.46 148.33 50.72C148.97 49.67 149.6 48.54 150.59 48.65C151.42 48.75 152.15 49.27 152.55 50.68C153.01 52.27 152.86 53.73 152.26 55.05C151.06 57.7 149.43 59.49 147.59 60.58C142.9 63.36 138.6 61.93 135.03 56.2C131.66 50.8 130.59 43.94 131.88 36.44C133.23 28.64 136.47 23.84 141.24 22.26C147.17 20.29 153.16 26.65 154.77 36.42C155.58 41.29 153.7 45.48 150.69 45.52C148.52 45.54 146.35 45.52 144.18 45.52Z" fill="#000000" fill-opacity="1.000000" fill-rule="evenodd"/>
		<path d="M20.29 32.3C18.24 32.3 16.19 32.28 14.14 32.3C12.5 32.32 11.47 33.83 11.5 36.11C11.53 38.42 12.54 39.82 14.18 39.82C17.62 39.83 21.07 39.8 24.51 39.84C25.91 39.85 26.18 40.55 25.71 42.72C23.99 50.65 19.05 55.58 13.91 54.48C7.76 53.17 3.49 43.3 4.56 32.86C5.6 22.72 11.62 15.96 17.67 18.13C19.77 18.88 21.53 20.63 23.1 23.02C24.59 25.28 26.57 24.3 26.97 21.19C27.2 19.32 26.53 18.11 25.78 17.05C21.08 10.4 15.74 8.48 9.99 12.11C4.2 15.77 0.81 23.06 0.1 33.44C-0.85 47.12 5 59.78 13.04 61.72C21.29 63.71 29.01 54.59 30.53 41.06C31.08 36.14 29.22 32.35 26.21 32.3C24.24 32.27 22.27 32.3 20.29 32.3Z" fill="#000000" fill-opacity="1.000000" fill-rule="evenodd"/>
		<path d="M167.63 22.04C164.94 21.93 162.5 23.22 160.35 25.85C158.27 28.41 157.4 32.01 157.93 36.25C158.45 40.33 159.97 43.01 162.45 43.94C165.01 44.9 167.58 45.77 170.15 46.68C171.05 47 171.89 47.44 172.07 49.27C172.26 51.15 171.59 52.14 170.72 52.91C170.42 53.18 170.1 53.44 169.78 53.63C166.65 55.45 164.13 53.61 161.87 50.02C160.72 48.2 159.42 48.09 158.47 49.61C157.56 51.08 157.58 53.48 158.52 55.41C162.29 63.17 170.5 64.27 174.94 57.6C176.8 54.81 177.58 51.39 176.92 47.31C176.27 43.25 174.62 40.87 172.18 39.99C169.65 39.07 167.12 38.16 164.59 37.24C163.65 36.9 162.9 36.09 162.81 34.37C162.71 32.67 163.35 31.7 164.23 30.98C167.12 28.64 170.65 29.68 172.85 33.61C174.01 35.69 175.34 35.98 176.39 34.4C177.46 32.79 177.4 30.29 176.21 28.23C173.87 24.19 171 22.1 167.63 22.04Z" fill="#000000" fill-opacity="1.000000" fill-rule="evenodd"/>
		<path d="M184.67 37.46C184.74 40.35 184.52 43.65 185.01 46.91C186.2 54.86 190.66 61.38 195.28 61.82C196.73 61.96 197.72 60.77 197.9 58.69C198.1 56.4 197.37 54.79 195.92 54.28C195.66 54.19 195.39 54.1 195.13 54.01C191.74 52.89 189.22 47.78 189.21 41.99C189.2 38.36 189.24 34.73 189.19 31.1C189.17 29.89 189.33 29.44 190.12 29.49C191.94 29.6 193.76 29.53 195.58 29.52C197.04 29.5 197.98 28.03 198 25.79C198.01 23.55 197.07 22.08 195.59 22.07C193.81 22.05 192.03 21.98 190.25 22.1C189.37 22.15 189.01 21.8 189.07 20.21C189.16 18.15 189.11 16.07 189.09 13.99C189.07 11.49 188.22 9.99 186.85 10.02C185.54 10.04 184.7 11.52 184.67 13.91C184.66 15.07 184.69 16.24 184.67 17.4C184.63 18.88 185.03 20.72 184.49 21.73C183.99 22.69 182.89 21.96 182.06 22.06C180.84 22.2 179.97 23.67 179.95 25.7C179.93 27.78 180.84 29.42 182.08 29.51C182.55 29.55 183.02 29.61 183.48 29.5C184.4 29.29 184.79 29.72 184.7 31.43C184.59 33.29 184.67 35.18 184.67 37.46Z" fill="#000000" fill-opacity="1.000000" fill-rule="evenodd"/>
		<path d="M94.1 26.04C93.86 25.77 93.96 25.42 93.92 25.13C93.64 22.99 92.68 21.85 91.38 22.08C90.26 22.28 89.52 23.71 89.52 25.84C89.51 36.59 89.51 47.33 89.51 58.07C89.51 59.76 89.97 60.92 90.88 61.54C92.42 62.59 93.94 60.82 93.96 57.85C93.99 52.87 93.98 47.89 93.96 42.9C93.95 41.4 94.06 39.93 94.31 38.5C95.16 33.71 97.15 31.01 99.99 29.8C101.51 29.16 102.16 27.35 101.82 25.04C101.51 22.97 100.35 21.96 98.9 22.44C97.13 23.04 95.57 24.4 94.1 26.04Z" fill="#000000" fill-opacity="1.000000" fill-rule="evenodd"/>
		<path d="M20.29 32.3C22.27 32.3 24.24 32.27 26.21 32.3C29.22 32.35 31.08 36.14 30.53 41.06C29.01 54.59 21.29 63.71 13.04 61.72C5 59.78 -0.85 47.12 0.1 33.44C0.81 23.06 4.2 15.77 9.99 12.11C15.74 8.48 21.08 10.4 25.78 17.05C26.53 18.11 27.2 19.32 26.97 21.19C26.57 24.3 24.59 25.28 23.1 23.02C21.53 20.63 19.77 18.88 17.67 18.13C11.62 15.96 5.6 22.72 4.56 32.86C3.49 43.3 7.76 53.17 13.91 54.48C19.05 55.58 23.99 50.65 25.71 42.72C26.18 40.55 25.91 39.85 24.51 39.84C21.07 39.8 17.62 39.83 14.18 39.82C12.54 39.82 11.53 38.42 11.5 36.11C11.47 33.83 12.5 32.32 14.14 32.3C16.19 32.28 18.24 32.3 20.29 32.3Z" fill="#000000" fill-opacity="1.000000" fill-rule="evenodd"/>
		<path d="M123.93 41.85C123.93 35.17 120.69 29.73 116.71 29.72C112.77 29.71 109.44 35.21 109.42 41.79C109.39 48.7 112.66 54.26 116.72 54.19C120.78 54.13 123.93 48.72 123.93 41.85ZM109.3 57.78C109.25 58.03 109.2 58.26 109.17 58.49C108.81 60.93 107.97 62.02 106.63 61.78C105.45 61.56 104.7 60.01 104.69 57.63C104.68 49.93 104.69 42.22 104.69 34.52C104.69 27.78 104.68 21.05 104.69 14.32C104.7 11.97 105.34 10.47 106.45 10.09C107.96 9.57 109.16 11.23 109.18 13.99C109.21 17.93 109.18 21.88 109.18 26.27C112.11 22.58 115.28 21.38 118.67 22.27C122.08 23.17 124.78 26.17 126.69 30.99C129.65 38.48 129.1 48.89 125.45 55.41C121.22 62.97 115.82 63.78 109.3 57.78Z" fill="#000000" fill-opacity="1.000000" fill-rule="evenodd"/>
		<path d="M71.75 54.07C75.86 54.08 79.08 48.8 79.1 42.02C79.12 35.24 75.91 29.78 71.86 29.72C67.8 29.66 64.5 35.2 64.5 42.05C64.51 48.72 67.73 54.05 71.75 54.07ZM79.24 26.15C79.47 23.49 80.12 22.22 81.34 22.07C82.66 21.91 83.73 23.35 83.73 25.58C83.77 36.53 83.78 47.47 83.77 58.42C83.77 60.14 82.98 61.52 82.02 61.79C80.92 62.1 79.98 61.29 79.55 59.64C79.41 59.07 79.34 58.44 79.24 57.84C72.29 63.99 66.39 62.71 62.39 54.2C58.81 46.62 59.04 35.98 62.97 28.53C66.14 22.5 72.75 18.45 79.24 26.15Z" fill="#000000" fill-opacity="1.000000" fill-rule="evenodd"/>
		<path d="M167.63 22.04C171 22.1 173.87 24.19 176.21 28.23C177.4 30.29 177.46 32.79 176.39 34.4C175.34 35.98 174.01 35.69 172.85 33.61C170.65 29.68 167.12 28.64 164.23 30.98C163.35 31.7 162.71 32.67 162.81 34.37C162.9 36.09 163.65 36.9 164.59 37.24C167.12 38.16 169.65 39.07 172.18 39.99C174.62 40.87 176.27 43.25 176.92 47.31C177.58 51.39 176.8 54.81 174.94 57.6C170.5 64.27 162.29 63.17 158.52 55.41C157.58 53.48 157.56 51.08 158.47 49.61C159.42 48.09 160.72 48.2 161.87 50.02C164.13 53.61 166.65 55.45 169.78 53.63C170.1 53.44 170.42 53.18 170.72 52.91C171.59 52.14 172.26 51.15 172.07 49.27C171.89 47.44 171.05 47 170.15 46.68C167.58 45.77 165.01 44.9 162.45 43.94C159.97 43.01 158.45 40.33 157.93 36.25C157.4 32.01 158.27 28.41 160.35 25.85C162.5 23.22 164.94 21.93 167.63 22.04Z" fill="#000000" fill-opacity="1.000000" fill-rule="evenodd"/>
		<path d="M184.67 37.46C184.67 35.18 184.59 33.29 184.7 31.43C184.79 29.72 184.4 29.29 183.48 29.5C183.02 29.61 182.55 29.55 182.08 29.51C180.84 29.42 179.93 27.78 179.95 25.7C179.97 23.67 180.84 22.2 182.06 22.06C182.89 21.96 183.99 22.69 184.49 21.73C185.03 20.72 184.63 18.88 184.67 17.4C184.69 16.24 184.66 15.07 184.67 13.91C184.7 11.52 185.54 10.04 186.85 10.02C188.22 9.99 189.07 11.49 189.09 13.99C189.11 16.07 189.16 18.15 189.07 20.21C189.01 21.8 189.37 22.15 190.25 22.1C192.03 21.98 193.81 22.05 195.59 22.07C197.07 22.08 198.01 23.55 198 25.79C197.98 28.03 197.04 29.5 195.58 29.52C193.76 29.53 191.94 29.6 190.12 29.49C189.33 29.44 189.17 29.89 189.19 31.1C189.24 34.73 189.2 38.36 189.21 41.99C189.22 47.78 191.74 52.89 195.13 54.01C195.39 54.1 195.66 54.19 195.92 54.28C197.37 54.79 198.1 56.4 197.9 58.69C197.72 60.77 196.73 61.96 195.28 61.82C190.66 61.38 186.2 54.86 185.01 46.91C184.52 43.65 184.74 40.35 184.67 37.46Z" fill="#000000" fill-opacity="1.000000" fill-rule="evenodd"/>
		<path d="M94.1 26.04C95.57 24.4 97.13 23.04 98.9 22.44C100.35 21.96 101.51 22.97 101.82 25.04C102.16 27.35 101.51 29.16 99.99 29.8C97.15 31.01 95.16 33.71 94.31 38.5C94.06 39.93 93.95 41.4 93.96 42.9C93.98 47.89 93.99 52.87 93.96 57.85C93.94 60.82 92.42 62.59 90.88 61.54C89.97 60.92 89.51 59.76 89.51 58.07C89.51 47.33 89.51 36.59 89.52 25.84C89.52 23.71 90.26 22.28 91.38 22.08C92.68 21.85 93.64 22.99 93.92 25.13C93.96 25.42 93.86 25.77 94.1 26.04Z" fill="#000000" fill-opacity="1.000000" fill-rule="evenodd"/>
	</g>
</svg>
