<svg width="198.000000" height="72.000000" viewBox="0 0 198 72" fill="none" xmlns="http://www.w3.org/2000/svg" xmlns:xlink="http://www.w3.org/1999/xlink">
	<desc>
			Created with Pixso.
	</desc>
	<defs>
		<clipPath id="clip13_1548">
			<rect rx="0.000000" width="197.000000" height="70.999992" transform="translate(0.500000 0.500000)" fill="white" fill-opacity="0"/>
		</clipPath>
	</defs>
	<g clip-path="url(#clip13_1548)">
		<path d="M113.45 20.54C115.88 20.54 117.38 21.93 118.21 23.1L118.45 23.43L118.59 22.98C118.97 21.83 119.73 21.2 120.71 21.2L123.11 21.2L123.09 48.09C123.09 58.35 117.95 62 113.55 62C111.41 62 109.04 61.06 107.23 59.5L106.87 59.19L107.45 56.79L107.86 55.15C108.3 53.37 108.94 52.93 110.04 53.47C110.88 53.96 112.14 54.5 113.52 54.5C116.36 54.5 117.93 52.34 117.93 48.43L117.93 47.61L117.53 48.09C116.49 49.36 115.19 49.98 113.55 49.98C108.73 49.98 105.36 43.88 105.36 35.15C105.36 26.42 108.62 20.54 113.45 20.54ZM141.85 20.7C144.52 20.7 148.49 22.54 148.49 27.58L148.49 31.4L145.78 31.39C145.56 31.39 144.4 31.29 144.02 29.24L144 29.08C143.83 28.18 142.78 27.64 141.85 27.64C138.99 27.64 137 31.05 137 35.92C137 41.56 139.57 44.1 142.12 44.1C144.75 44.1 146.78 40.9 147.03 40.49L147.06 40.44L147.34 39.96L149.48 45.7L149.34 45.99C149.31 46.04 146.65 51.25 141.75 51.25C136.1 51.25 132 44.83 132 35.98C132 27.13 136.14 20.7 141.85 20.7ZM28.27 20.68C33.77 20.68 37.77 27.06 37.77 35.86C37.77 44.66 33.77 51.05 28.27 51.05C22.79 51.05 18.81 44.66 18.81 35.86C18.81 27.06 22.79 20.68 28.27 20.68ZM48.57 20.68C54.07 20.68 58.08 27.06 58.08 35.86C58.08 44.66 54.07 51.05 48.57 51.05C43.09 51.05 39.11 44.66 39.11 35.86C39.11 27.06 43.09 20.68 48.57 20.68ZM159.38 20.68C164.88 20.68 168.88 27.06 168.88 35.86C168.88 44.66 164.88 51.05 159.38 51.05C153.9 51.05 149.92 44.66 149.92 35.86C149.92 27.06 153.9 20.68 159.38 20.68ZM80.73 21.27C82.56 21.27 83.45 22.73 83.45 25.73L83.44 50.58L83.43 50.58L83.43 50.59L82.22 50.59L81 50.6C80.97 50.6 80.94 50.59 80.91 50.59L78.29 50.59L78.29 43.95L78.3 43.95L78.28 21.27L80.73 21.27ZM62.38 10C63.81 10 65.13 10.46 65.13 13.91L65.13 31.11L65.96 31.11C66.59 31.11 67 30.86 67.21 30.37L70.84 21.27L76.72 21.27L71.88 32.91C71.63 33.5 71.37 34.01 71.12 34.43L70.95 34.7L71.11 34.99C71.37 35.43 71.62 35.98 71.83 36.62L73.8 42.66L76.77 50.6L72.78 50.6C71.28 50.6 70.48 50.2 69.68 47.82L66.81 39.05C66.62 38.53 66.22 38.42 65.62 38.42L65.13 38.42L65.13 50.6L59.93 50.6L59.92 10L62.38 10L62.38 10ZM97.1 20.61C101.33 20.61 103.57 24.53 103.57 31.94L103.57 50.59L101.11 50.59C99.23 50.59 98.36 49.17 98.36 46.13L98.36 33.36C98.36 29.8 97.74 28.42 96.12 28.42C94.12 28.42 92.51 30.39 91.93 33.56C91.72 34.6 91.61 35.75 91.61 37.07L91.61 50.59L86.44 50.59L86.43 21.26L88.76 21.26C90.17 21.26 91.11 22.21 91.39 23.93L91.5 24.63L91.81 24.12C92.76 22.51 94.45 20.61 97.1 20.61ZM191.97 20.7L192.22 20.71C196.05 20.86 198 24.64 198 31.94L197.99 50.58L195.67 50.58C193.84 50.58 193.03 49.27 193.03 46.32L193.03 33.27C193.03 29.53 192.47 28.14 190.95 28.14C188.85 28.14 187.49 31.19 187.09 34.16C186.9 35.22 186.82 36.28 186.82 37.69L186.82 50.58L181.84 50.58L181.84 33.27C181.84 30.02 181.19 28.35 179.85 28.14C177.67 27.81 176.37 31.16 175.9 34.27C175.73 35.44 175.64 36.56 175.64 37.69L175.64 50.58L170.7 50.58L170.73 21.37L172.9 21.37C174.25 21.37 175.15 22.27 175.42 23.89L175.61 25.02L176.1 24.16C176.85 22.88 178.46 20.7 180.86 20.7C183.15 20.7 184.8 22.14 185.76 24.96L186.05 25.82L186.43 25.05C187.76 22.33 189.83 20.71 191.98 20.71L191.97 20.7ZM3.15 10.01L8.56 10.01C13.3 10.01 16.36 14.13 16.36 20.51C16.36 24.69 15.07 27.1 14.29 28.17L13.63 29.09L14.39 29.78C16.24 31.46 17.33 34.77 17.33 38.64C17.33 45.82 13.94 50.45 8.67 50.45L2.49 50.46L2.48 50.45L0 50.45L0 14.23C0.01 11.94 1.13 10.09 2.54 10.01L3.15 10.01ZM28.27 27.78C25.68 27.78 23.88 31.11 23.88 35.86C23.88 40.62 25.68 43.95 28.27 43.95C30.91 43.95 32.7 40.7 32.7 35.86C32.7 31.11 30.88 27.78 28.27 27.78L28.27 27.78ZM48.57 27.78C45.98 27.78 44.18 31.11 44.18 35.86C44.18 40.62 45.98 43.95 48.57 43.95C51.22 43.95 53 40.7 53 35.86C53 31.11 51.18 27.78 48.57 27.78L48.57 27.78ZM159.38 27.78C156.79 27.78 154.99 31.11 154.99 35.86C154.99 40.62 156.79 43.95 159.38 43.95C162.03 43.95 163.81 40.7 163.81 35.86C163.81 31.11 161.99 27.78 159.38 27.78L159.38 27.78ZM9.01 32.62L6.15 32.62C5.23 32.83 4.81 33.73 4.81 35.47L4.81 43.6L9.02 43.61C11.1 43.61 12.39 41.55 12.39 38.09C12.39 34.7 11.06 32.62 9.01 32.62ZM114.19 27.92C110.89 27.92 110.63 33.29 110.63 34.93C110.63 38.67 111.64 42.66 114.46 42.66C116.09 42.66 118.02 41.36 118.02 35.21C118.02 28.68 115.84 27.92 114.19 27.92L114.19 27.92ZM8.53 16.64L6.37 16.64C5.3 16.76 4.81 17.65 4.81 19.52L4.81 26.36L8.59 26.36C10.72 26.36 11.48 23.7 11.48 21.42C11.48 18.43 10.38 16.64 8.53 16.64Z" fill="#000000" fill-opacity="1.000000" fill-rule="evenodd"/>
		<path d="M131.74 47.47C131.74 49.25 130.38 50.69 128.7 50.69C127.01 50.69 125.65 49.25 125.65 47.47C125.65 45.68 127.01 44.24 128.7 44.24C130.38 44.24 131.74 45.68 131.74 47.47Z" fill="#000000" fill-opacity="1.000000" fill-rule="evenodd"/>
		<path d="M83.61 15.18C83.61 16.96 82.25 18.41 80.57 18.41C78.88 18.41 77.52 16.96 77.52 15.18C77.52 13.4 78.88 11.95 80.57 11.95C82.25 11.95 83.61 13.4 83.61 15.18Z" fill="#000000" fill-opacity="1.000000" fill-rule="evenodd"/>
	</g>
</svg>
