<svg width="198.000000" height="72.000000" viewBox="0 0 198 72" fill="none" xmlns="http://www.w3.org/2000/svg" xmlns:xlink="http://www.w3.org/1999/xlink">
	<desc>
			Created with Pixso.
	</desc>
	<defs>
		<clipPath id="clip13_1544">
			<rect rx="0.000000" width="197.000000" height="70.999992" transform="translate(0.500000 0.500000)" fill="white" fill-opacity="0"/>
		</clipPath>
	</defs>
	<g clip-path="url(#clip13_1544)">
		<path d="M168.3 27.45C168.21 27.23 168.06 27.09 167.91 27.09L165.2 27.09C164.96 27.09 164.74 27.43 164.69 27.9L164.48 29.91C163.88 28.85 163.28 28.17 162.43 27.52L162.16 27.29C162.13 27.27 162.09 27.24 162.06 27.23C159.13 25.96 156.18 27.7 153.77 32.11C152.56 34.29 151.65 36.82 151.04 39.53L154.59 11.22C154.62 11 154.59 10.75 154.52 10.56C154.45 10.38 154.33 10.27 154.21 10.27L150.92 10.27C150.81 10.27 150.71 10.36 150.63 10.53L136.32 42.26C136.82 37.5 139.64 11.19 139.64 11.19C139.64 11.14 139.64 11.09 139.64 11.04C139.64 10.87 139.62 10.69 139.56 10.55C139.48 10.38 139.37 10.27 139.25 10.27L135.62 10.27C135.51 10.27 135.4 10.37 135.33 10.53L117.18 51.7C116.87 45.71 115.42 39.18 115.42 39.18C112.99 29.39 107.58 26.22 104.51 31.83L104.49 31.84L104.01 32.53C106.23 25.55 111.88 25.86 115.52 34.08C115.52 34.08 117.13 37.9 118.28 43.57C118.58 41.57 118.77 39.49 118.83 37.37C116.94 32.34 114.8 29.38 114.8 29.38C110.21 23.29 104.71 25.86 103.48 33.74L103.46 33.77L103.23 34.84C103.38 26.6 108.35 21.33 113.58 24.87C113.58 24.87 116.05 26.65 118.54 30.59C118.51 30.28 118.47 29.96 118.43 29.65C118.16 27.57 117.77 25.59 117.27 23.76C114.36 21.29 111.79 20.83 111.79 20.83C106.26 20.07 102.15 27.69 103.1 35.72L103.09 35.76L103.15 36.92C101.19 29.64 104.15 20.2 109.58 18.12C109.58 18.12 112.11 17.26 115.21 18.16C114.43 16.53 113.53 15.1 112.53 13.89C109.42 14.61 107.09 16.72 107.09 16.72C102.12 21.5 100.5 32.13 103.36 38.16L103.36 38.2L103.71 39.15C100.16 34.77 100.32 23.68 104.5 16.54C104.5 16.54 106.45 13.34 109.36 11.08C108.16 10.37 106.92 10.01 105.66 10C103.23 13.63 101.82 17.57 101.82 17.57C98.72 26.6 100.03 37.39 104.03 39.81L104.05 39.84L104.59 40.31C100.4 40.02 97.72 30.26 99.52 19.96C99.52 19.96 100.35 15.53 102.18 10.86C101.13 11.39 100.14 12.18 99.21 13.16C98.03 18.7 97.81 23.52 97.81 23.52C97.42 34.39 101.3 42.45 105.39 40.61L105.41 40.62L106 40.49C102.29 44.35 97.48 38.54 96.43 27.85C96.43 27.85 96.01 23.08 96.43 17.13C95.55 18.77 94.77 20.66 94.13 22.77C94.53 28.63 95.54 32.93 95.54 32.93C97.97 42.72 103.38 45.89 106.45 40.28L106.48 40.27L106.96 39.58C104.73 46.56 99.08 46.25 95.45 38.03C95.45 38.03 93.59 33.46 92.61 28.14C92.61 27.89 92.58 27.65 92.5 27.45C92.4 27.23 92.25 27.09 92.09 27.09L89.39 27.09C89.15 27.09 88.93 27.43 88.88 27.9C88.88 27.9 88.67 28.52 88.58 29.74C87.98 28.68 87.27 28.07 86.62 27.52L86.35 27.29C86.31 27.27 86.28 27.24 86.25 27.23C83.32 25.96 80.37 27.7 77.95 32.11C76.53 34.69 75.5 37.75 74.92 41.06L74.87 41.27L76.02 28.28C76.04 27.99 76 27.68 75.9 27.45C75.8 27.22 75.66 27.09 75.5 27.09L72.62 27.1C72.37 27.1 72.15 27.45 72.11 27.94L69.13 59.82C69.11 60.12 69.15 60.43 69.25 60.67C69.35 60.89 69.49 61.03 69.65 61.03L72.68 61.04C72.94 61.04 73.16 60.68 73.2 60.19L74.35 47.22C74.36 47.3 74.37 47.35 74.37 47.35C74.36 48.64 74.41 49.95 74.54 51.25C74.98 56.13 77.18 60.68 79.55 61.6C81.62 62.34 83.83 61.31 86.02 58.66C85.98 59.12 85.91 59.82 85.91 59.82C85.9 59.88 85.9 59.94 85.9 60.01C85.9 60.25 85.94 60.48 86.02 60.67C86.12 60.9 86.26 61.03 86.42 61.03L89.1 61.04C89.35 61.04 89.57 60.69 89.61 60.2L91.97 35.11C93.74 39.23 96.04 42.74 96.04 42.74C100.64 48.83 106.13 46.26 107.36 38.39L107.38 38.36L107.62 37.29C107.47 45.52 102.5 50.8 97.26 47.25C97.26 47.25 95 45.62 92.62 42.02C92.64 42.19 92.66 42.37 92.68 42.54C92.96 44.7 93.37 46.74 93.9 48.64C96.67 50.88 99.06 51.3 99.06 51.3C104.58 52.06 108.69 44.44 107.75 36.41L107.76 36.37L107.69 35.2C109.66 42.49 106.7 51.94 101.26 54.01C101.26 54.01 98.88 54.83 95.9 54.04C96.62 55.51 97.42 56.84 98.31 57.97C101.4 57.23 103.68 55.14 103.68 55.14C108.66 50.38 110.28 39.74 107.42 33.71L107.42 33.67L107.07 32.72C110.62 37.1 110.46 48.19 106.28 55.33C106.28 55.33 104.29 58.59 101.34 60.86C102.15 61.39 102.99 61.78 103.84 62L105.04 62C107.52 58.33 108.96 54.3 108.96 54.3C112.06 45.27 110.76 34.47 106.75 32.06L106.73 32.03L106.19 31.56C110.38 31.85 113.07 41.61 111.26 51.91C111.26 51.91 110.36 56.72 108.36 61.61C108.52 61.54 108.68 61.47 108.84 61.39C109.85 60.89 110.8 60.15 111.69 59.25C112.93 53.59 113.16 48.58 113.16 48.58C113.54 37.73 109.66 29.66 105.57 31.51L105.56 31.5L104.96 31.62C108.67 27.76 113.48 33.58 114.54 44.26C114.54 44.26 115.15 49.17 114.69 54.98C114.6 55.82 114.43 57.04 114.08 58.34C113.98 58.7 113.85 59.12 113.69 59.62L113.69 59.6C113.69 59.62 113.68 59.63 113.68 59.64C113.67 59.66 113.67 59.66 113.67 59.67C113.61 59.88 113.6 60.14 113.65 60.37C113.71 60.64 113.85 60.82 114.01 60.81L115.69 60.81C116.58 60.8 117.34 60.79 118.35 60.86C118.47 60.87 118.59 60.77 118.67 60.59L133.32 26.18C132.7 32.45 130.95 48.6 129.69 59.93C129.69 59.99 129.69 60.04 129.69 60.1C129.69 60.27 129.72 60.44 129.77 60.58C129.85 60.76 129.96 60.86 130.08 60.86L133.04 60.81C133.16 60.81 133.26 60.72 133.34 60.55C133.34 60.55 146.48 30.35 148.16 26.49C147.46 32.79 145.54 48.71 144.17 59.92C144.16 59.98 144.16 60.03 144.16 60.1C144.16 60.26 144.19 60.43 144.25 60.57C144.32 60.76 144.43 60.86 144.55 60.86L148.06 60.86C148.24 60.86 148.4 60.62 148.44 60.28L149.96 48.18L150.17 46.48C150.17 46.97 150.18 47.35 150.18 47.35C150.17 48.64 150.22 49.95 150.35 51.25C150.79 56.13 153 60.68 155.36 61.6C157.43 62.34 159.65 61.31 161.83 58.66L161.72 59.82C161.71 59.88 161.71 59.94 161.71 60.01C161.71 60.25 161.75 60.48 161.83 60.67C161.93 60.9 162.08 61.03 162.23 61.03L164.91 61.04C165.16 61.04 165.38 60.69 165.42 60.2L167.84 34.94L168.42 28.14C168.43 27.89 168.39 27.65 168.3 27.45ZM0 60.37L0 59.74C0.01 59.67 0.03 59.61 0.06 59.55L21.71 10.53C21.78 10.37 21.89 10.27 22 10.27L25.5 10.27C25.61 10.27 25.72 10.37 25.8 10.55C25.86 10.69 25.89 10.87 25.89 11.03C25.89 11.08 25.88 11.14 25.88 11.19C25.88 11.19 23.17 37.5 22.66 42.26C24.37 38.47 36.97 10.53 36.97 10.53C37.05 10.36 37.15 10.27 37.26 10.27L40.55 10.27C40.67 10.27 40.79 10.38 40.86 10.56C40.94 10.75 40.96 11 40.93 11.22L37.48 38.76C37.51 38.66 37.53 38.56 37.56 38.47C39.2 32.19 42.33 27.77 45.7 26.96C45.71 26.95 45.73 26.95 45.74 26.95C48.8 26.65 51.16 28.92 52.57 33.51L52.59 33.59C53.1 35.59 53.48 38.29 53.55 41.06C54.13 37.75 55.15 34.69 56.58 32.11C58.99 27.7 61.94 25.96 64.87 27.23C64.9 27.24 64.94 27.27 64.97 27.29L65.24 27.52C65.89 28.07 66.6 28.68 67.2 29.74C67.52 26.8 68.45 18.1 68.45 18.1C68.5 17.63 68.71 17.29 68.96 17.29L71.66 17.29C71.82 17.29 71.96 17.43 72.06 17.65C72.16 17.89 72.2 18.2 72.18 18.5L68.24 60.2C68.19 60.69 67.98 61.04 67.73 61.04L65.05 61.03C64.89 61.03 64.74 60.9 64.64 60.67C64.56 60.48 64.52 60.25 64.52 60.01C64.52 59.95 64.52 59.88 64.53 59.82C64.53 59.82 64.6 59.12 64.64 58.66C62.46 61.31 60.25 62.34 58.18 61.6C55.81 60.68 53.6 56.13 53.16 51.25C53.04 49.95 52.98 48.64 52.99 47.35C52.9 47.51 52.77 47.62 52.64 47.62L40.2 47.63C40.19 47.73 40.18 47.82 40.18 47.92C40.18 48.3 40.25 48.79 40.34 49.34L40.39 49.7C40.98 52.55 42.39 54.33 44 54.26C45.6 54.19 47.08 52.68 48.39 49.8C48.49 49.58 48.63 49.45 48.78 49.45L51.55 49.45C51.73 49.45 51.9 49.63 51.99 49.93C52.09 50.23 52.1 50.6 52.03 50.92C50.45 57.42 46.92 61.79 43.22 61.79C40.64 61.59 38.48 59.13 37.28 55.01C36.68 52.81 36.39 50.09 36.41 47.3L34.78 60.28C34.74 60.62 34.58 60.86 34.4 60.86L30.89 60.86C30.77 60.86 30.66 60.76 30.59 60.57C30.53 60.43 30.5 60.26 30.5 60.1C30.5 60.03 30.51 59.98 30.51 59.92C31.88 48.71 33.8 32.79 34.5 26.49L19.68 60.55C19.6 60.72 19.5 60.81 19.39 60.81L16.42 60.86C16.3 60.86 16.19 60.76 16.12 60.58C16.06 60.44 16.03 60.27 16.03 60.1C16.03 60.04 16.03 59.99 16.04 59.93C17.29 48.6 19.04 32.45 19.66 26.18L5.01 60.59C4.93 60.77 4.82 60.87 4.7 60.86C3.68 60.79 2.92 60.8 2.04 60.81L0.35 60.81C0.2 60.82 0.06 60.64 0 60.37ZM163.48 44.87C162.88 49.04 160.87 53 158.91 53.94C157.41 54.32 156.31 54.05 155.55 53.07C154.74 51.98 154.33 50.09 154.02 48.39C153.97 47.78 153.94 47.16 153.94 46.56C153.94 42.77 154.97 39.11 156.87 36.31C157.96 34.81 159.45 34.24 160.75 34.83C161.49 35.16 162.49 36.02 163.12 38.25C163.47 39.46 163.66 41 163.66 42.49C163.66 43.32 163.6 44.13 163.48 44.87ZM41.37 40.09L49.43 39.94C49.37 38.8 49.07 37.74 48.43 36.49C47.73 35.31 46.76 34.75 45.39 34.74C43.91 35.14 42.18 37.06 41.37 40.09ZM66.3 44.87C66.41 44.13 66.47 43.32 66.47 42.49C66.47 41 66.28 39.46 65.93 38.25C65.3 36.02 64.3 35.16 63.56 34.83C62.26 34.24 60.78 34.81 59.68 36.31C57.79 39.11 56.75 42.77 56.75 46.56C56.75 47.16 56.78 47.78 56.83 48.39C57.15 50.09 57.55 51.98 58.36 53.07C59.12 54.05 60.23 54.32 61.72 53.94C63.68 53 65.69 49.04 66.3 44.87ZM72.86 18.1L72.23 24.81C72.2 25.1 72.25 25.42 72.35 25.66C72.44 25.89 72.59 26.02 72.75 26.02L75.79 26.02C76.04 26.02 76.26 25.68 76.3 25.18L76.87 18.54C76.9 18.24 76.86 17.93 76.76 17.7C76.66 17.47 76.51 17.33 76.36 17.33L73.38 17.28C73.13 17.27 72.91 17.62 72.86 18.1ZM87.67 44.87C87.07 49.04 85.06 53 83.1 53.94C81.6 54.32 80.5 54.05 79.74 53.07C78.93 51.98 78.53 50.09 78.21 48.39C78.16 47.78 78.13 47.16 78.13 46.56C78.13 42.77 79.16 39.11 81.06 36.31C82.16 34.81 83.64 34.24 84.94 34.83C85.68 35.16 86.68 36.02 87.31 38.25C87.66 39.46 87.85 41 87.85 42.49C87.85 43.32 87.79 44.13 87.67 44.87ZM187.56 58.07L182.55 42.28C182.96 41.34 187.22 31.15 188.08 29.15L187.7 33.1C187.67 33.4 187.71 33.71 187.81 33.94C187.91 34.18 188.05 34.32 188.21 34.32L189.54 34.32C189.39 36.12 188 52.73 187.56 58.07ZM172.98 29.04L173.04 28.3C173.07 28 173.03 27.69 172.93 27.46C172.83 27.23 172.69 27.09 172.54 27.09L169.83 27.09C169.58 27.08 169.36 27.43 169.32 27.92L169.24 28.72L166.35 59.73C166.33 60.03 166.37 60.35 166.47 60.58C166.58 60.81 166.73 60.95 166.89 60.94L168.22 60.9L169.47 60.9C169.72 60.9 169.93 60.56 169.98 60.08L171.96 40.84C172.62 35.96 174.26 34.51 175.72 34.08C175.8 34.06 176.09 34.07 176.15 33.99C175.16 45.66 173.98 59.48 173.95 59.71C173.93 60 173.97 60.31 174.07 60.54C174.17 60.77 174.32 60.9 174.47 60.9L177.38 60.9C177.6 60.9 177.81 60.61 177.87 60.18C177.97 59.62 178.66 51.69 179.08 46.92C180.16 50.14 183.6 60.43 183.6 60.43C183.7 60.72 183.86 60.89 184.03 60.89L187.51 60.9C187.58 60.9 187.64 60.87 187.69 60.83C187.77 60.9 187.85 60.94 187.93 60.94L190.87 60.9C191.12 60.89 191.34 60.54 191.38 60.06L193.65 34.33L197.02 34.32C197.27 34.32 197.49 33.96 197.53 33.47L197.99 28.28C197.99 28.22 198 28.17 198 28.1C198 27.87 197.95 27.64 197.87 27.45C197.78 27.22 197.63 27.09 197.47 27.09L194.15 27.09C194.31 25.25 194.9 18.48 194.9 18.48C194.91 18.43 194.91 18.37 194.91 18.31C194.91 18.07 194.87 17.83 194.79 17.65C194.69 17.42 194.54 17.29 194.39 17.29L191.47 17.29C191.22 17.29 191 17.65 190.96 18.13C190.96 18.13 190.31 25.7 190.19 27.09C189.93 27.11 189.65 27.12 189.65 27.12L189.2 27.12L188.71 27.11C188.53 27.1 188.36 27.28 188.27 27.58C188.17 27.3 188.02 27.12 187.84 27.12L185.16 27.11L184.38 27.11C184.24 27.11 184.1 27.23 184 27.43C184 27.43 181.31 33.49 179.88 36.53C180.3 31.71 181.45 18.5 181.45 18.5C181.46 18.44 181.46 18.38 181.46 18.32C181.46 18.08 181.41 17.85 181.33 17.67C181.24 17.43 181.09 17.3 180.94 17.3L178.03 17.29C177.77 17.29 177.55 17.64 177.51 18.13C177.45 18.92 177.14 22.44 176.74 27.12L176.73 27.08C176.62 26.85 176.48 26.72 176.32 26.73C175.08 26.81 173.96 27.8 172.98 29.04Z" fill="#000000" fill-opacity="1.000000" fill-rule="evenodd"/>
		<path d="M111.18 36C111.18 39.04 108.79 41.51 105.85 41.51C102.91 41.51 100.52 39.04 100.52 36C100.52 32.95 102.91 30.48 105.85 30.48C108.79 30.48 111.18 32.95 111.18 36Z" fill="#000000" fill-opacity="1.000000" fill-rule="evenodd"/>
	</g>
</svg>
