<svg width="198.000000" height="72.000000" viewBox="0 0 198 72" fill="none" xmlns="http://www.w3.org/2000/svg" xmlns:xlink="http://www.w3.org/1999/xlink">
	<desc>
			Created with Pixso.
	</desc>
	<defs>
		<clipPath id="clip13_1573">
			<rect rx="0.000000" width="197.000000" height="71.000000" transform="translate(0.500000 0.500000)" fill="white" fill-opacity="0"/>
		</clipPath>
	</defs>
	<g clip-path="url(#clip13_1573)">
		<path d="M81.82 33.77C79.36 32.39 76.76 31.57 74.23 30.46C73.2 30 72.17 29.46 71.16 28.88C69.97 28.18 69.1 26.94 69.11 24.81C69.12 22.54 69.77 20.67 71.09 19.64C72.56 18.49 74.15 18.63 75.74 18.89C78.42 19.34 79.59 21.9 80.1 24.78C80.18 25.22 80.26 25.65 80.34 26.06L86.52 26.06C86.86 21.26 85.07 16.76 82.59 14.17C81.08 12.59 79.4 11.81 77.6 11.3C74.57 10.44 71.65 10.7 68.77 12.42C65.23 14.53 62.3 19.54 62.68 26.73C62.83 29.65 63.61 32 64.87 34.02C66.41 36.48 68.43 37.62 70.46 38.6C72.55 39.6 74.71 40.25 76.79 41.28C77.93 41.84 79.08 42.64 80.03 43.76C81.76 45.78 81.7 49.37 80.05 51.57C79.26 52.61 78.35 53.24 77.32 53.47C75.88 53.8 74.49 54.01 73.02 53.53C70.55 52.73 68.52 50.36 68.13 46.54C68.07 45.99 67.97 44.92 67.97 44.92C65.88 44.92 63.56 44.91 61.57 44.91C61.57 44.91 61.62 46.15 61.63 46.47C61.98 52.79 64.21 57.01 67.75 59.61C69.66 61.01 71.71 61.57 73.83 61.66C76.79 61.8 79.66 61.41 82.4 59.37C86.79 56.1 88.67 48.57 87.21 41.82C86.33 37.72 84.31 35.16 81.82 33.77Z" fill="#000000" fill-opacity="1.000000" fill-rule="evenodd"/>
		<path d="M52.48 40.11C52.11 45.13 50.82 49.46 47.89 52.19C46.33 53.64 44.62 53.72 42.9 53.6C38.76 53.29 36.2 48.09 35.43 42.66C35.3 41.78 35.13 40.91 35.08 40.02C35.02 38.86 34.97 37.72 34.97 36.55C34.94 33.19 35.27 29.99 36.18 26.96C37.82 21.47 40.69 19.04 44.48 19.32C48.32 19.61 50.87 24.09 51.84 28.67C52.63 32.45 52.77 36.28 52.48 40.11ZM56.04 21.17C53.12 14.42 48.96 11.34 43 11.33C41.33 11.15 38.99 12.07 36.78 13.75C34.27 15.66 32.43 18.7 31.02 22.42C29.37 26.77 28.79 31.61 28.74 36.56C28.71 39.97 29.05 43.39 29.83 46.66C30.64 50.03 31.77 53.06 33.44 55.53C35.43 58.46 37.8 60.22 40.48 61.05C44.55 62.32 48.41 61.53 51.96 58.13C55.23 55 57.18 50.25 58.16 44.52C58.85 40.44 58.96 36.3 58.58 32.1C58.22 28.15 57.46 24.45 56.04 21.17Z" fill="#000000" fill-opacity="1.000000" fill-rule="evenodd"/>
		<path d="M97.96 52L97.96 39.35L110.9 39.35L110.9 31.7L97.96 31.7L97.96 20.61C103.24 20.56 108.69 20.63 114.07 20.57L114.07 12.1L91.58 12.1L91.58 60.54L114.11 60.54L114.07 52L97.96 52Z" fill="#000000" fill-opacity="1.000000" fill-rule="evenodd"/>
		<path d="M15.92 12.08C10.92 11.87 5.92 11.98 0.93 11.98L0 11.98L0 20.2L1.3 20.2C5.52 20.2 9.75 20.17 13.97 20.23C14.72 20.24 15.54 20.42 16.21 20.92C18.46 22.58 19.16 26.59 18.24 29.81C17.45 32.55 15.94 33.8 13.98 33.78C9.72 33.72 5.46 33.75 1.21 33.76L0 33.76L0 60.74L6.12 60.74C6.12 60.74 6.12 59.38 6.12 58.76C6.13 53.79 6.08 48.8 6.12 43.82C6.12 43.82 6.12 41.22 6.12 41.64C6.12 41.64 6.6 41.64 6.73 41.64C8.39 41.62 11.06 41.61 12.9 41.61C13.86 45.53 15.19 51.01 16.12 54.76C16.62 56.77 17.19 58.88 17.66 60.74L23.76 60.74C22.18 54.3 20.51 47.5 18.89 40.9C19.44 40.4 19.66 40.26 20 39.97C21.92 38.29 23.24 35.72 24.1 32.54C25.33 27.98 25.12 23.54 23.52 19.3C21.82 14.76 19.24 12.22 15.92 12.08Z" fill="#000000" fill-opacity="1.000000" fill-rule="evenodd"/>
		<path d="M134.31 34.98C133.98 34.98 133.25 35.01 133.25 35.01L133.25 39.34L143.51 39.34C143.39 43.99 142.58 47.92 140.79 51.3C138.75 55.13 136.2 57.55 132.99 57.81C131.7 57.91 130.37 57.64 129.09 57.23C125.92 56.2 123.73 53.01 122.09 48.79C121.05 46.12 120.58 43.17 120.62 40.03C120.68 35.71 120.3 31.36 121.14 27.09C122.56 19.92 126.06 14.96 130.66 14.12C134.75 13.36 138.31 15.58 140.93 20.78C141.63 22.18 142.19 23.75 142.85 25.32L145.42 25.32C145.31 24.67 145.28 24.31 145.19 23.98C144.55 21.58 143.74 19.33 142.62 17.4C139.96 12.83 136.75 10.05 132.71 10.03C132 10.03 131.29 9.93 130.59 10.06C129.62 10.24 128.62 10.38 127.72 10.9C124.6 12.69 122.03 15.69 120.3 20.23C119.12 23.29 118.17 26.49 118.13 30.17C118.1 32.97 118 35.78 118.02 38.58C118.05 41.81 118.18 45.02 119.07 48.04C121.33 55.71 124.89 60.78 130.4 61.81C133.3 62.35 136.15 61.77 138.73 59.49C141.96 56.65 144.24 52.48 145.43 46.89C146.11 43.72 146.17 40.46 146.14 37.17C146.14 36.35 146.15 35.62 146.16 34.98C142.66 34.97 137.54 34.97 134.31 34.98Z" fill="#000000" fill-opacity="1.000000" fill-rule="evenodd"/>
		<path d="M197.96 56.68C196.12 56.68 183.31 56.65 181.37 56.63L181.37 11.38L178.65 11.42C178.63 12.05 178.65 46.02 178.65 60.74C184.13 60.74 198 60.74 198 60.74L197.96 56.68Z" fill="#000000" fill-opacity="1.000000" fill-rule="evenodd"/>
		<path d="M155.94 38.85C157.71 31.38 159.56 23.59 161.34 16.1C161.44 16.1 161.71 16.1 161.81 16.1C161.81 16.1 164.75 28.51 165.35 31.08C165.94 33.59 166.6 36.35 167.18 38.85L155.94 38.85ZM166.98 26.13C166 21.99 164.47 15.51 163.39 10.8C162.07 10.8 160.59 10.8 159.99 10.8C156.1 26.67 151.78 44.38 147.85 60.74L150.7 60.74C152.03 55.08 154.51 44.72 154.85 43.37L168.27 43.37C169.35 47.99 171.11 55.22 172.4 60.74L175.16 60.74C174.35 57.22 172.99 51.38 172.44 49.1C170.62 41.44 168.8 33.79 166.98 26.13Z" fill="#000000" fill-opacity="1.000000" fill-rule="evenodd"/>
	</g>
</svg>
