<svg width="198.000000" height="72.000000" viewBox="0 0 198 72" fill="none" xmlns="http://www.w3.org/2000/svg" xmlns:xlink="http://www.w3.org/1999/xlink">
	<desc>
			Created with Pixso.
	</desc>
	<defs>
		<clipPath id="clip13_1533">
			<rect rx="0.000000" width="197.000000" height="70.999992" transform="translate(0.500000 0.500000)" fill="white" fill-opacity="0"/>
		</clipPath>
	</defs>
	<g clip-path="url(#clip13_1533)">
		<path d="M102.01 61.79C108.92 61.79 113.53 54.54 113.53 42.31L113.53 11.01L105.96 11.01L105.96 41.82C105.96 47.51 104.7 50.33 102.05 50.33C99.48 50.33 98.39 47.44 98.39 41.82L98.39 11.01L90.78 11.01L90.78 42.31C90.79 54.81 95 61.79 102 61.79L102.01 61.79ZM124.76 34.08L123.37 34.08L123.37 22.2L125.37 22.2C128.72 22.2 130.33 23.89 130.33 28.03C130.32 32.52 128.5 34.08 124.76 34.08ZM133.8 13.75C131.71 11.36 129.24 11.01 125.98 11.01L115.72 11.01L115.72 61.01L123.28 61.01L123.28 44.91L125.45 44.91C128.67 44.91 131.11 44.55 133.07 42.66C136.15 39.64 137.98 34.3 137.98 27.82C137.98 21.55 136.55 16.84 133.8 13.75ZM179.82 33.16L191.35 61.01L198 61.01L198 11.01L190.44 11.01L190.44 38.79L179.08 11.01L172.26 11.01L172.26 61.01L179.82 61.01L179.82 33.16ZM72.95 49.56C68.69 49.56 64.82 43.51 64.82 35.63C64.82 28.31 68.43 22.49 73.05 22.49C77.4 22.49 81.01 28.31 81.01 35.63C81 43.78 77.4 49.56 72.95 49.56L72.95 49.56ZM84.04 17.48C81.04 12.7 77.13 10.1 73 10.1C68.61 10.1 64.77 12.56 61.73 17.41C58.69 22.26 57.03 28.6 57.03 35.5C57.03 42.88 58.51 49.07 61.42 54.07C64.46 59.27 68.38 61.94 72.94 61.94C77.25 61.94 81.34 59.21 84.33 54.14C87.25 49.29 88.82 42.88 88.82 35.72C88.83 28.87 87.18 22.47 84.04 17.48ZM154.9 49.56C150.64 49.56 146.77 43.51 146.77 35.63C146.77 28.31 150.39 22.49 154.99 22.49C159.34 22.49 162.96 28.31 162.96 35.63C162.95 43.78 159.33 49.56 154.9 49.56L154.9 49.56ZM165.99 17.48C162.99 12.7 159.07 10.1 154.94 10.1C150.54 10.1 146.72 12.56 143.68 17.41C140.64 22.26 138.98 28.6 138.98 35.5C138.98 42.88 140.46 49.07 143.36 54.07C146.42 59.27 150.32 61.94 154.89 61.94C159.2 61.94 163.28 59.21 166.28 54.14C169.2 49.29 170.76 42.88 170.76 35.72C170.78 28.87 169.12 22.47 165.99 17.48ZM4.37 54.05C7.41 59.26 11.29 62 15.86 62C21.12 62 26.08 57.77 29.03 50.81C30.82 46.58 31.69 41.8 31.69 36.17C31.69 35.12 31.65 33.99 31.61 32.86L13.99 32.86L13.99 42.85L22.82 42.85C21.29 47.21 18.73 49.61 15.86 49.61C11.59 49.61 7.77 43.49 7.77 35.53C7.77 28.35 11.33 22.38 15.86 22.38C18.29 22.38 20.29 24.01 22.21 27.23L30.82 27.23C28.35 16.54 22.56 10 15.95 10C11.56 10 7.74 12.53 4.69 17.38C1.65 22.23 0 28.57 0 35.46C-0.02 42.86 1.46 49.05 4.37 54.05L4.37 54.05ZM42.64 34.08L41.17 34.08L41.17 22.2L43.26 22.2C46.6 22.2 48.21 23.89 48.21 28.03C48.21 32.52 46.38 34.08 42.64 34.08ZM48.86 43.84C53.25 41.87 55.86 35.83 55.86 27.74C55.86 21.56 54.43 16.84 51.68 13.75C49.59 11.36 47.11 11.01 43.85 11.01L33.59 11.01L33.59 61.01L41.16 61.01L41.16 44.91L47.07 61.01L56.42 61.01L48.86 43.84Z" fill="#000000" fill-opacity="1.000000" fill-rule="evenodd"/>
	</g>
</svg>
