<svg width="160.000000" height="60.000000" viewBox="0 0 160 60" fill="none" xmlns="http://www.w3.org/2000/svg" xmlns:xlink="http://www.w3.org/1999/xlink">
	<desc>
			Created with Pixso.
	</desc>
	<defs/>
	<path d="M65.25 0L80.48 38.34L18.09 60L0 4.16L65.25 0ZM40.92 19.99C36.86 22.24 34.77 26.11 35.1 31.31C35.42 36.42 37.95 39.7 42.16 41.43C45.55 42.82 49.03 43.01 52.56 42.44C53.51 42.29 54.45 41.99 55.35 41.74L55.88 41.59L55.88 36.07C53.43 36.33 51.2 36.86 49 36.74C45.8 36.57 43.69 34.03 43.53 30.77C43.3 26.03 46.47 23.15 51.12 23.97C52.35 24.19 53.55 24.64 54.82 25.05L55.36 25.22L55.36 19.04C50.37 17.41 45.52 17.44 40.92 19.99ZM93.74 33.63C94.15 33.63 94.54 33.7 94.92 33.83C95.29 33.95 95.62 34.21 95.9 34.6L95.08 35.45C94.95 35.23 94.77 35.05 94.54 34.91C94.3 34.78 94.04 34.71 93.74 34.71C93.46 34.71 93.23 34.75 93.04 34.84C92.85 34.92 92.7 35.03 92.59 35.16C92.48 35.29 92.4 35.43 92.35 35.58C92.3 35.74 92.28 35.88 92.28 36C92.28 36.36 92.37 36.64 92.56 36.83C92.74 37.02 92.97 37.18 93.24 37.29C93.51 37.41 93.81 37.52 94.13 37.62C94.45 37.71 94.75 37.85 95.02 38.02C95.29 38.19 95.52 38.42 95.7 38.71C95.89 39 95.98 39.4 95.98 39.91C95.98 40.32 95.91 40.69 95.77 41.01C95.63 41.34 95.45 41.62 95.21 41.84C94.98 42.06 94.71 42.24 94.39 42.35C94.07 42.48 93.73 42.54 93.37 42.54C92.89 42.54 92.44 42.44 92.01 42.25C91.58 42.06 91.23 41.76 90.98 41.36L91.82 40.55C92 40.86 92.24 41.09 92.52 41.24C92.81 41.38 93.1 41.46 93.4 41.46C93.57 41.46 93.75 41.43 93.92 41.37C94.1 41.31 94.26 41.22 94.4 41.1C94.55 40.98 94.67 40.83 94.76 40.66C94.85 40.48 94.9 40.28 94.9 40.05C94.9 39.72 94.8 39.47 94.62 39.3C94.44 39.13 94.21 38.98 93.94 38.87C93.67 38.75 93.37 38.64 93.05 38.53C92.73 38.43 92.43 38.28 92.16 38.08C91.89 37.89 91.66 37.64 91.48 37.31C91.29 36.99 91.2 36.55 91.2 36C91.2 35.75 91.25 35.49 91.34 35.21C91.44 34.93 91.59 34.68 91.8 34.45C92 34.22 92.26 34.02 92.58 33.87C92.9 33.71 93.29 33.63 93.74 33.63ZM147.77 36.51C148.21 36.51 148.59 36.59 148.89 36.77C149.2 36.94 149.45 37.17 149.65 37.46C149.85 37.74 149.99 38.06 150.08 38.41C150.17 38.77 150.21 39.13 150.21 39.5L150.21 39.88L146.19 39.88C146.19 40.13 146.24 40.35 146.34 40.56C146.43 40.76 146.56 40.93 146.71 41.08C146.87 41.22 147.05 41.33 147.25 41.41C147.45 41.49 147.67 41.53 147.89 41.53C148.18 41.53 148.44 41.45 148.66 41.3C148.88 41.14 149.08 40.94 149.26 40.68L149.98 41.3C149.45 42.08 148.71 42.46 147.76 42.46C147.36 42.46 147 42.39 146.68 42.24C146.36 42.08 146.09 41.88 145.87 41.61C145.65 41.34 145.48 41.03 145.35 40.66C145.24 40.3 145.17 39.91 145.17 39.48C145.17 39.06 145.24 38.67 145.37 38.31C145.5 37.94 145.68 37.63 145.91 37.36C146.14 37.09 146.41 36.88 146.73 36.73C147.05 36.58 147.39 36.51 147.77 36.51ZM136.59 36.51C137.03 36.51 137.41 36.59 137.72 36.77C138.03 36.94 138.28 37.17 138.48 37.46C138.67 37.74 138.82 38.06 138.9 38.41C138.99 38.77 139.04 39.13 139.04 39.5L139.04 39.88L135.01 39.88C135.01 40.13 135.06 40.35 135.16 40.56C135.25 40.76 135.38 40.93 135.53 41.08C135.69 41.22 135.87 41.33 136.07 41.41C136.28 41.49 136.49 41.53 136.71 41.53C137 41.53 137.26 41.45 137.48 41.3C137.7 41.14 137.9 40.94 138.08 40.68L138.8 41.3C138.27 42.08 137.53 42.46 136.58 42.46C136.18 42.46 135.83 42.39 135.51 42.24C135.19 42.08 134.91 41.88 134.69 41.61C134.47 41.34 134.3 41.03 134.18 40.66C134.06 40.3 134 39.91 134 39.48C134 39.06 134.06 38.67 134.19 38.31C134.32 37.94 134.5 37.63 134.73 37.36C134.96 37.09 135.24 36.88 135.55 36.73C135.87 36.58 136.22 36.51 136.59 36.51ZM122.27 36.51C122.71 36.51 123.09 36.59 123.4 36.77C123.7 36.94 123.96 37.17 124.15 37.46C124.35 37.74 124.49 38.06 124.58 38.41C124.67 38.77 124.71 39.13 124.71 39.5L124.71 39.88L120.69 39.88C120.69 40.13 120.74 40.35 120.84 40.56C120.93 40.76 121.06 40.93 121.21 41.08C121.37 41.22 121.55 41.33 121.75 41.41C121.95 41.49 122.17 41.53 122.39 41.53C122.68 41.53 122.94 41.45 123.16 41.3C123.38 41.14 123.58 40.94 123.76 40.68L124.48 41.3C123.95 42.08 123.21 42.46 122.26 42.46C121.86 42.46 121.51 42.39 121.18 42.24C120.86 42.08 120.59 41.88 120.37 41.61C120.15 41.34 119.98 41.03 119.86 40.66C119.74 40.3 119.68 39.91 119.68 39.48C119.68 39.06 119.74 38.67 119.87 38.31C120 37.94 120.18 37.63 120.41 37.36C120.64 37.09 120.91 36.88 121.23 36.73C121.55 36.58 121.9 36.51 122.27 36.51L122.27 36.51ZM117.25 36.52C117.62 36.52 117.97 36.59 118.31 36.74C118.64 36.89 118.93 37.11 119.18 37.41L118.46 38.16C118.28 37.95 118.1 37.79 117.9 37.68C117.71 37.58 117.48 37.52 117.21 37.52C116.95 37.52 116.72 37.58 116.53 37.68C116.33 37.79 116.17 37.94 116.04 38.13C115.91 38.31 115.81 38.53 115.74 38.77C115.68 39.01 115.64 39.27 115.64 39.53C115.64 39.79 115.68 40.05 115.76 40.28C115.84 40.52 115.95 40.72 116.09 40.9C116.23 41.07 116.4 41.21 116.6 41.31C116.79 41.41 117.02 41.46 117.26 41.46C117.53 41.46 117.76 41.4 117.95 41.3C118.14 41.19 118.32 41.03 118.48 40.82L119.16 41.59C118.91 41.9 118.62 42.12 118.29 42.26C117.97 42.39 117.62 42.46 117.25 42.46C116.86 42.46 116.51 42.39 116.19 42.25C115.87 42.1 115.59 41.9 115.36 41.64C115.13 41.38 114.94 41.07 114.82 40.71C114.69 40.35 114.63 39.95 114.63 39.51C114.63 39.07 114.69 38.67 114.82 38.3C114.95 37.93 115.12 37.62 115.35 37.35C115.58 37.09 115.86 36.89 116.18 36.74C116.5 36.59 116.86 36.52 117.25 36.52ZM99.53 36.51C99.98 36.51 100.35 36.59 100.66 36.77C100.97 36.94 101.22 37.17 101.42 37.46C101.61 37.74 101.76 38.06 101.85 38.41C101.93 38.77 101.98 39.13 101.98 39.5L101.98 39.88L97.96 39.88C97.96 40.13 98 40.35 98.1 40.56C98.19 40.76 98.32 40.93 98.47 41.08C98.63 41.22 98.81 41.33 99.01 41.41C99.22 41.49 99.43 41.53 99.65 41.53C99.95 41.53 100.2 41.45 100.42 41.3C100.64 41.14 100.84 40.94 101.03 40.68L101.75 41.3C101.22 42.08 100.47 42.46 99.52 42.46C99.13 42.46 98.77 42.39 98.45 42.24C98.13 42.08 97.85 41.88 97.63 41.61C97.41 41.34 97.24 41.03 97.12 40.66C97 40.3 96.94 39.91 96.94 39.48C96.94 39.06 97 38.67 97.14 38.31C97.27 37.94 97.45 37.63 97.68 37.36C97.9 37.09 98.18 36.88 98.5 36.73C98.81 36.58 99.16 36.51 99.53 36.51ZM14.39 18.76L12.88 18.76L12.88 42.39L20.76 42.39L20.76 35.37L22.19 35.31C24.03 35.23 25.62 35.11 26.94 34.65C28.86 33.98 30.16 33.14 31.6 31.67C34.87 28.35 34.06 22.61 30.18 20.29C28.92 19.53 27.44 18.89 26.04 18.83C23.65 18.72 21.26 18.71 18.82 18.73L14.39 18.76ZM140.68 36.65L142.18 40.99L143.62 36.65L144.64 36.65L142.67 42.32L141.62 42.32L139.58 36.65L140.68 36.65L140.68 36.65ZM107.54 36.65L109.04 40.99L110.48 36.65L111.5 36.65L109.53 42.32L108.48 42.32L106.44 36.65L107.54 36.65L107.54 36.65ZM105.6 36.5C105.75 36.5 105.9 36.53 106.02 36.58L105.98 37.74C105.9 37.71 105.83 37.69 105.75 37.68C105.67 37.66 105.59 37.65 105.51 37.65C105.05 37.65 104.69 37.8 104.45 38.1C104.2 38.39 104.07 38.85 104.07 39.47L104.07 42.32L103.12 42.32L103.12 36.65L104.07 36.65L104.07 37.52L104.1 37.52C104.16 37.37 104.24 37.23 104.35 37.11C104.46 36.99 104.57 36.88 104.7 36.79C104.84 36.7 104.98 36.63 105.13 36.58C105.29 36.53 105.44 36.5 105.6 36.5ZM152.38 33.27L152.38 42.32L151.43 42.32L151.43 33.27L152.38 33.27ZM130.06 33.85L130.06 41.24L133.5 41.24L133.5 42.32L129.04 42.32L129.04 33.85L130.06 33.85ZM113.36 36.65L113.36 42.32L112.4 42.32L112.4 36.65L113.36 36.65ZM160 33.85L160 42.32L158.98 42.32L158.98 35.16L157.6 36.6L157.01 35.8L159.1 33.85L160 33.85ZM67.4 18.6L59.4 18.6L59.4 42.23L67.4 42.23L67.4 18.6ZM99.51 37.37C99.28 37.37 99.07 37.42 98.87 37.52C98.68 37.62 98.51 37.75 98.38 37.9C98.24 38.07 98.14 38.24 98.07 38.44C97.99 38.63 97.96 38.83 97.96 39.02L100.96 39.02C100.96 38.78 100.92 38.56 100.86 38.36C100.8 38.16 100.71 37.99 100.59 37.84C100.47 37.69 100.32 37.58 100.14 37.49C99.96 37.41 99.75 37.37 99.51 37.37ZM147.75 37.37C147.51 37.37 147.3 37.42 147.11 37.52C146.91 37.62 146.75 37.75 146.62 37.9C146.48 38.07 146.38 38.24 146.3 38.44C146.23 38.63 146.19 38.83 146.19 39.02L149.2 39.02C149.19 38.78 149.16 38.56 149.1 38.36C149.04 38.16 148.95 37.99 148.83 37.84C148.71 37.69 148.56 37.58 148.38 37.49C148.2 37.41 147.99 37.37 147.75 37.37ZM136.57 37.37C136.34 37.37 136.12 37.42 135.93 37.52C135.74 37.62 135.57 37.75 135.44 37.9C135.3 38.07 135.2 38.24 135.12 38.44C135.05 38.63 135.01 38.83 135.01 39.02L138.02 39.02C138.01 38.78 137.98 38.56 137.92 38.36C137.86 38.16 137.77 37.99 137.65 37.84C137.53 37.69 137.38 37.58 137.2 37.49C137.02 37.41 136.81 37.37 136.57 37.37ZM122.25 37.37C122.01 37.37 121.8 37.42 121.61 37.52C121.41 37.62 121.25 37.75 121.12 37.9C120.98 38.07 120.88 38.24 120.8 38.44C120.73 38.63 120.69 38.83 120.69 39.02L123.7 39.02C123.69 38.78 123.66 38.56 123.6 38.36C123.54 38.16 123.45 37.99 123.33 37.84C123.21 37.69 123.06 37.58 122.88 37.49C122.7 37.41 122.49 37.37 122.25 37.37ZM112.88 33.83C113.07 33.83 113.24 33.9 113.37 34.06C113.51 34.21 113.58 34.4 113.58 34.61C113.58 34.83 113.51 35.02 113.37 35.17C113.24 35.33 113.07 35.4 112.88 35.4C112.69 35.4 112.53 35.33 112.39 35.17C112.25 35.02 112.18 34.83 112.18 34.61C112.18 34.4 112.25 34.21 112.39 34.06C112.53 33.9 112.69 33.83 112.88 33.83ZM25.2 24.98C25.69 25.75 25.75 27.4 25.35 28.26C24.57 29.91 23.13 30.01 21.57 30L20.82 29.98L20.82 23.75C22.53 23.38 24.2 23.41 25.2 24.98ZM107.47 18.37C107.88 18.37 108.27 18.43 108.65 18.56C109.02 18.69 109.35 18.95 109.63 19.34L108.81 20.19C108.68 19.96 108.5 19.78 108.27 19.65C108.03 19.51 107.77 19.45 107.47 19.45C107.19 19.45 106.96 19.49 106.77 19.57C106.58 19.65 106.43 19.76 106.32 19.89C106.21 20.03 106.13 20.17 106.08 20.32C106.03 20.47 106.01 20.61 106.01 20.74C106.01 21.1 106.1 21.37 106.29 21.56C106.47 21.75 106.7 21.91 106.97 22.03C107.24 22.15 107.54 22.26 107.86 22.35C108.18 22.45 108.48 22.58 108.75 22.75C109.02 22.93 109.25 23.16 109.43 23.45C109.61 23.74 109.7 24.14 109.7 24.65C109.7 25.06 109.64 25.42 109.5 25.75C109.36 26.08 109.18 26.35 108.94 26.58C108.71 26.8 108.43 26.97 108.12 27.09C107.8 27.21 107.46 27.27 107.1 27.27C106.62 27.27 106.17 27.17 105.74 26.98C105.31 26.79 104.96 26.5 104.71 26.1L105.55 25.28C105.73 25.6 105.96 25.82 106.25 25.97C106.53 26.12 106.83 26.19 107.13 26.19C107.3 26.19 107.48 26.16 107.65 26.1C107.83 26.04 107.99 25.95 108.13 25.84C108.28 25.71 108.4 25.57 108.49 25.39C108.58 25.22 108.63 25.01 108.63 24.78C108.63 24.46 108.53 24.21 108.35 24.03C108.17 23.86 107.94 23.72 107.67 23.6C107.4 23.49 107.1 23.38 106.78 23.27C106.46 23.16 106.16 23.01 105.89 22.82C105.62 22.63 105.39 22.37 105.21 22.05C105.02 21.72 104.93 21.29 104.93 20.74C104.93 20.49 104.98 20.23 105.07 19.95C105.17 19.67 105.32 19.41 105.52 19.18C105.73 18.95 105.99 18.76 106.31 18.6C106.63 18.45 107.02 18.37 107.47 18.37ZM101.59 18.37C102 18.37 102.39 18.43 102.76 18.56C103.14 18.69 103.46 18.95 103.75 19.34L102.92 20.19C102.79 19.96 102.61 19.78 102.38 19.65C102.15 19.51 101.88 19.45 101.59 19.45C101.31 19.45 101.07 19.49 100.88 19.57C100.7 19.65 100.55 19.76 100.43 19.89C100.32 20.03 100.24 20.17 100.2 20.32C100.15 20.47 100.13 20.61 100.13 20.74C100.13 21.1 100.22 21.37 100.4 21.56C100.59 21.75 100.81 21.91 101.08 22.03C101.36 22.15 101.65 22.26 101.97 22.35C102.29 22.45 102.59 22.58 102.86 22.75C103.13 22.93 103.36 23.16 103.54 23.45C103.73 23.74 103.82 24.14 103.82 24.65C103.82 25.06 103.75 25.42 103.61 25.75C103.48 26.08 103.29 26.35 103.06 26.58C102.82 26.8 102.55 26.97 102.23 27.09C101.91 27.21 101.58 27.27 101.22 27.27C100.74 27.27 100.28 27.17 99.85 26.98C99.42 26.79 99.08 26.5 98.82 26.1L99.66 25.28C99.84 25.6 100.08 25.82 100.36 25.97C100.65 26.12 100.95 26.19 101.25 26.19C101.42 26.19 101.59 26.16 101.77 26.1C101.94 26.04 102.1 25.95 102.25 25.84C102.39 25.71 102.51 25.57 102.6 25.39C102.69 25.22 102.74 25.01 102.74 24.78C102.74 24.46 102.65 24.21 102.47 24.03C102.28 23.86 102.05 23.72 101.78 23.6C101.51 23.49 101.21 23.38 100.89 23.27C100.57 23.16 100.28 23.01 100 22.82C99.73 22.63 99.5 22.37 99.32 22.05C99.14 21.72 99.05 21.29 99.05 20.74C99.05 20.49 99.09 20.23 99.19 19.95C99.28 19.67 99.43 19.41 99.64 19.18C99.84 18.95 100.11 18.76 100.43 18.6C100.75 18.45 101.14 18.37 101.59 18.37ZM117.59 18.37C118.09 18.37 118.57 18.48 119.05 18.69C119.52 18.91 119.91 19.24 120.22 19.69L119.37 20.42C119.16 20.1 118.89 19.87 118.56 19.7C118.24 19.53 117.9 19.45 117.56 19.45C117.14 19.45 116.75 19.54 116.41 19.72C116.07 19.9 115.78 20.14 115.53 20.45C115.29 20.76 115.1 21.13 114.97 21.55C114.83 21.97 114.77 22.41 114.77 22.89C114.77 23.34 114.83 23.76 114.96 24.16C115.08 24.56 115.27 24.91 115.51 25.21C115.75 25.52 116.04 25.76 116.38 25.93C116.73 26.11 117.12 26.19 117.56 26.19C117.99 26.19 118.37 26.1 118.69 25.9C119.02 25.7 119.29 25.42 119.52 25.06L120.37 25.79L120.29 25.91C120.23 25.98 120.16 26.07 120.08 26.16C119.94 26.33 119.75 26.49 119.52 26.66C119.28 26.82 119 26.96 118.68 27.09C118.35 27.21 117.97 27.27 117.54 27.27C116.95 27.27 116.41 27.14 115.94 26.89C115.46 26.63 115.05 26.3 114.72 25.88C114.38 25.47 114.13 25 113.95 24.48C113.77 23.96 113.69 23.43 113.69 22.89C113.69 22.24 113.78 21.63 113.97 21.08C114.16 20.52 114.43 20.05 114.77 19.64C115.11 19.24 115.52 18.93 116 18.7C116.48 18.48 117.01 18.37 117.59 18.37ZM132.48 19.79L132.48 21.39L133.85 21.39L133.85 22.32L132.48 22.32L132.48 24.89C132.48 25.05 132.49 25.21 132.5 25.36C132.5 25.52 132.53 25.66 132.57 25.78C132.62 25.91 132.69 26 132.79 26.08C132.88 26.16 133.02 26.19 133.2 26.19C133.32 26.19 133.43 26.18 133.55 26.16C133.67 26.13 133.78 26.09 133.88 26.03L133.88 27.01C133.77 27.08 133.62 27.13 133.44 27.16C133.26 27.18 133.12 27.2 133.02 27.2C132.66 27.2 132.37 27.14 132.17 27.03C131.97 26.91 131.82 26.76 131.73 26.58C131.63 26.39 131.58 26.19 131.56 25.96C131.54 25.73 131.53 25.5 131.53 25.27L131.53 22.32L130.43 22.32L130.43 21.38L131.53 21.38L131.53 19.79L132.48 19.79ZM154.6 18.01L154.6 27.05L153.64 27.05L153.64 26.24L153.62 26.24C153.44 26.55 153.18 26.78 152.87 26.95C152.54 27.11 152.21 27.2 151.87 27.2C151.49 27.2 151.14 27.12 150.82 26.97C150.51 26.82 150.24 26.61 150.02 26.34C149.8 26.07 149.62 25.75 149.5 25.39C149.38 25.03 149.32 24.64 149.32 24.22C149.32 23.8 149.38 23.4 149.5 23.04C149.62 22.68 149.8 22.36 150.02 22.1C150.24 21.83 150.51 21.62 150.82 21.47C151.14 21.32 151.49 21.24 151.87 21.24C152.24 21.24 152.57 21.33 152.89 21.5C153.21 21.67 153.45 21.9 153.62 22.2L153.64 22.2L153.64 18.01L154.6 18.01ZM145.98 21.24C146.42 21.24 146.8 21.33 147.11 21.5C147.41 21.68 147.67 21.91 147.86 22.19C148.06 22.47 148.2 22.79 148.29 23.15C148.38 23.5 148.42 23.87 148.42 24.23L148.42 24.61L144.4 24.61C144.4 24.86 144.45 25.09 144.55 25.29C144.64 25.49 144.77 25.67 144.92 25.81C145.08 25.95 145.26 26.07 145.46 26.15C145.67 26.23 145.88 26.27 146.1 26.27C146.39 26.27 146.65 26.19 146.87 26.03C147.09 25.88 147.29 25.67 147.47 25.42L148.19 26.04C147.66 26.81 146.92 27.2 145.97 27.2C145.57 27.2 145.22 27.12 144.89 26.97C144.57 26.82 144.3 26.61 144.08 26.34C143.86 26.08 143.69 25.76 143.57 25.4C143.45 25.04 143.39 24.64 143.39 24.22C143.39 23.8 143.45 23.4 143.58 23.04C143.71 22.68 143.89 22.36 144.12 22.1C144.35 21.83 144.62 21.62 144.94 21.47C145.26 21.32 145.61 21.24 145.98 21.24L145.98 21.24ZM123.66 21.24C124.1 21.24 124.48 21.33 124.78 21.5C125.09 21.68 125.34 21.91 125.54 22.19C125.74 22.47 125.88 22.79 125.97 23.15C126.06 23.5 126.1 23.87 126.1 24.23L126.1 24.61L122.08 24.61C122.08 24.86 122.13 25.09 122.22 25.29C122.32 25.49 122.44 25.67 122.6 25.81C122.75 25.95 122.93 26.07 123.14 26.15C123.34 26.23 123.55 26.27 123.77 26.27C124.07 26.27 124.33 26.19 124.55 26.03C124.76 25.88 124.96 25.67 125.15 25.42L125.87 26.04C125.34 26.81 124.6 27.2 123.64 27.2C123.25 27.2 122.89 27.12 122.57 26.97C122.25 26.82 121.98 26.61 121.76 26.34C121.53 26.08 121.36 25.76 121.24 25.4C121.12 25.04 121.06 24.64 121.06 24.22C121.06 23.8 121.13 23.4 121.26 23.04C121.39 22.68 121.57 22.36 121.8 22.1C122.03 21.83 122.3 21.62 122.62 21.47C122.94 21.32 123.28 21.24 123.66 21.24L123.66 21.24ZM94.04 18.59C94.57 18.59 95.03 18.65 95.43 18.79C95.83 18.92 96.17 19.11 96.47 19.33C96.76 19.56 97 19.82 97.2 20.12C97.39 20.41 97.55 20.71 97.66 21.03C97.77 21.34 97.85 21.65 97.9 21.96C97.95 22.27 97.98 22.56 97.98 22.82C97.98 23.36 97.89 23.89 97.71 24.39C97.54 24.9 97.27 25.35 96.93 25.75C96.58 26.14 96.15 26.46 95.64 26.7C95.13 26.94 94.54 27.06 93.87 27.06L91.42 27.06L91.42 18.59L94.04 18.59ZM139.7 17.87C139.81 17.87 139.92 17.87 140.04 17.88C140.15 17.89 140.28 17.91 140.41 17.95L140.31 18.91C140.21 18.87 140.13 18.84 140.04 18.82C139.96 18.81 139.87 18.8 139.77 18.8C139.59 18.8 139.45 18.83 139.34 18.89C139.24 18.95 139.15 19.04 139.09 19.15C139.03 19.26 139 19.39 138.98 19.55C138.96 19.7 138.95 19.88 138.95 20.08L138.95 21.39L140.09 21.39L140.09 22.32L138.94 22.32L138.94 27.05L137.99 27.05L137.99 22.32L136.91 22.32L136.91 21.38L137.99 21.38L137.99 20.12C137.99 19.36 138.12 18.79 138.37 18.42C138.63 18.05 139.08 17.87 139.7 17.87L139.7 17.87ZM142.17 21.38L142.17 27.06L141.22 27.06L141.22 21.38L142.17 21.38ZM136.1 21.38L136.1 27.06L135.15 27.06L135.15 21.38L136.1 21.38ZM129.72 21.24C129.88 21.24 130.02 21.26 130.14 21.31L130.1 22.47C130.03 22.45 129.95 22.43 129.87 22.41C129.79 22.4 129.72 22.39 129.64 22.39C129.17 22.39 128.81 22.54 128.57 22.83C128.32 23.13 128.2 23.59 128.2 24.21L128.2 27.05L127.24 27.05L127.24 21.38L128.2 21.38L128.2 22.26L128.22 22.26C128.28 22.11 128.37 21.97 128.47 21.84C128.58 21.72 128.7 21.62 128.83 21.53C128.96 21.44 129.1 21.37 129.26 21.32C129.41 21.27 129.57 21.24 129.72 21.24ZM151.99 22.25C151.74 22.25 151.51 22.3 151.3 22.4C151.1 22.5 150.92 22.63 150.78 22.8C150.64 22.97 150.53 23.18 150.46 23.42C150.38 23.67 150.34 23.93 150.34 24.22C150.34 24.51 150.38 24.77 150.46 25.02C150.53 25.26 150.64 25.47 150.78 25.64C150.92 25.81 151.1 25.95 151.3 26.04C151.51 26.14 151.74 26.19 151.99 26.19C152.25 26.19 152.47 26.14 152.68 26.04C152.88 25.95 153.06 25.81 153.2 25.64C153.34 25.47 153.45 25.26 153.53 25.02C153.6 24.77 153.64 24.51 153.64 24.22C153.64 23.93 153.6 23.67 153.53 23.42C153.45 23.18 153.34 22.97 153.2 22.8C153.06 22.63 152.88 22.5 152.68 22.4C152.47 22.3 152.25 22.25 151.99 22.25ZM93.97 19.66L92.44 19.66L92.44 25.98L93.72 25.98C94.15 25.98 94.56 25.91 94.94 25.78C95.33 25.65 95.67 25.45 95.95 25.19C96.25 24.93 96.47 24.6 96.64 24.2C96.81 23.81 96.9 23.35 96.9 22.82C96.9 22.55 96.86 22.23 96.78 21.87C96.7 21.51 96.56 21.16 96.34 20.83C96.13 20.51 95.83 20.23 95.45 20C95.07 19.78 94.57 19.66 93.97 19.66ZM145.96 22.1C145.73 22.1 145.51 22.15 145.32 22.25C145.12 22.35 144.96 22.48 144.83 22.64C144.69 22.8 144.59 22.98 144.51 23.17C144.44 23.37 144.4 23.56 144.4 23.75L147.41 23.75C147.4 23.51 147.37 23.29 147.31 23.1C147.25 22.9 147.16 22.72 147.04 22.57C146.92 22.43 146.77 22.31 146.59 22.23C146.41 22.14 146.2 22.1 145.96 22.1ZM123.63 22.1C123.4 22.1 123.19 22.15 122.99 22.25C122.8 22.35 122.64 22.48 122.5 22.64C122.37 22.8 122.26 22.98 122.19 23.17C122.12 23.37 122.08 23.56 122.08 23.75L125.08 23.75C125.08 23.51 125.04 23.29 124.99 23.1C124.92 22.9 124.83 22.72 124.71 22.57C124.6 22.43 124.44 22.31 124.26 22.23C124.08 22.14 123.87 22.1 123.63 22.1ZM135.63 18.56C135.82 18.56 135.98 18.64 136.12 18.79C136.26 18.95 136.33 19.13 136.33 19.35C136.33 19.57 136.26 19.75 136.12 19.91C135.98 20.06 135.82 20.14 135.63 20.14C135.44 20.14 135.27 20.06 135.14 19.91C135 19.75 134.93 19.57 134.93 19.35C134.93 19.13 135 18.95 135.14 18.79C135.27 18.64 135.44 18.56 135.63 18.56ZM141.69 18.56C141.88 18.56 142.05 18.64 142.19 18.79C142.32 18.95 142.39 19.13 142.39 19.35C142.39 19.57 142.32 19.75 142.19 19.91C142.05 20.06 141.88 20.14 141.69 20.14C141.5 20.14 141.34 20.06 141.2 19.91C141.06 19.75 140.99 19.57 140.99 19.35C140.99 19.13 141.06 18.95 141.2 18.79C141.34 18.64 141.5 18.56 141.69 18.56ZM63.33 5.69C60.37 5.68 58.45 7.7 58.43 10.85C58.41 13.99 60.34 16.08 63.28 16.09C66.27 16.09 68.16 14.1 68.17 10.91C68.17 7.74 66.29 5.7 63.33 5.69Z" fill="#FFFFFF" fill-opacity="1.000000" fill-rule="evenodd"/>
</svg>
