<svg width="40.000000" height="40.000000" viewBox="0 0 40 40" fill="none" xmlns="http://www.w3.org/2000/svg" xmlns:xlink="http://www.w3.org/1999/xlink">
	<desc>
			Created with Pixso.
	</desc>
	<defs>
		<clipPath id="clip13_1484">
			<rect id="Frame" rx="0.000000" width="17.000000" height="17.000000" transform="translate(11.500000 11.500000)" fill="white" fill-opacity="0"/>
		</clipPath>
	</defs>
	<rect id="border" x="1.000000" y="1.000000" width="38.000000" height="38.000000" stroke="#AAAAAA" stroke-opacity="1.000000" stroke-width="2.000000"/>
	<rect id="Frame" rx="0.000000" width="17.000000" height="17.000000" transform="translate(11.500000 11.500000)" fill="#FFFFFF" fill-opacity="0"/>
	<g clip-path="url(#clip13_1484)">
		<path id="Vector" d="M15.02 27.87L11.29 27.87L11.29 17.35L15.02 17.35L15.02 27.87ZM13.16 15.92C11.96 15.92 11 15.06 11 14.01C11 12.97 11.96 12.12 13.16 12.12C14.35 12.12 15.32 12.97 15.32 14.01C15.32 15.06 14.35 15.92 13.16 15.92ZM29 27.87L25.27 27.87L25.27 22.75C25.27 21.53 25.24 19.97 23.33 19.97C21.39 19.97 21.09 21.29 21.09 22.66L21.09 27.87L17.36 27.87L17.36 17.35L20.94 17.35L20.94 18.79L21 18.79C21.49 17.96 22.71 17.09 24.53 17.09C28.3 17.09 29 19.27 29 22.09L29 27.87L29 27.87Z" fill="#AAAAAA" fill-opacity="1.000000" fill-rule="nonzero"/>
	</g>
</svg>
