<svg width="216.355225" height="22.662964" viewBox="0 0 216.355 22.663" fill="none" xmlns="http://www.w3.org/2000/svg" xmlns:xlink="http://www.w3.org/1999/xlink">
	<desc>
			Created with Pixso.
	</desc>
	<defs/>
	<path d="M35.56 14.24C35.71 14.38 35.79 14.59 35.78 14.8C35.78 15.4 35.46 15.7 34.82 15.7L29.27 15.7C28.85 15.73 28.48 15.38 28.45 14.92C28.45 14.89 28.45 14.86 28.45 14.83C28.45 14.52 28.57 14.23 28.78 14.02L33.36 8.69L29.81 8.69C29.58 8.71 29.35 8.64 29.16 8.49C29.01 8.34 28.93 8.13 28.94 7.91C28.94 7.32 29.26 7.03 29.91 7.03L35.21 7.03C35.43 7.02 35.65 7.11 35.81 7.28C35.95 7.45 36.03 7.67 36.03 7.9C36.02 8.21 35.9 8.51 35.7 8.73L31.14 14.04L34.91 14.04C35.14 14.02 35.38 14.09 35.56 14.24ZM38.49 10.58L42.23 10.58C42.28 9.99 42.13 9.41 41.8 8.93C41.49 8.55 41.03 8.35 40.56 8.38C39.4 8.38 38.71 9.11 38.49 10.58L38.49 10.58ZM43.78 11.56C43.65 11.7 43.47 11.77 43.3 11.76L38.42 11.76C38.41 12.42 38.63 13.06 39.04 13.54C39.48 13.97 40.05 14.18 40.64 14.14C40.99 14.15 41.34 14.1 41.68 13.99C42 13.88 42.32 13.73 42.61 13.54C42.73 13.46 42.87 13.42 43.02 13.42C43.19 13.41 43.35 13.49 43.45 13.64C43.56 13.79 43.61 13.98 43.61 14.18C43.61 14.52 43.45 14.84 43.2 15.03C42.84 15.3 42.44 15.5 42.02 15.62C41.53 15.77 41.02 15.85 40.51 15.85C39.76 15.87 39.02 15.68 38.36 15.32C37.76 14.99 37.27 14.47 36.94 13.84C36.59 13.16 36.42 12.38 36.44 11.6C36.43 10.75 36.6 9.9 36.95 9.13C37.26 8.43 37.76 7.84 38.37 7.43C39.01 7.01 39.73 6.8 40.47 6.81C41.44 6.75 42.38 7.14 43.06 7.9C43.71 8.76 44.04 9.87 43.97 10.98C43.98 11.2 43.91 11.4 43.78 11.56L43.78 11.56ZM52.22 7.6C52.72 8.25 52.97 9.09 52.92 9.94C52.92 10.16 52.91 10.33 52.9 10.45L52.57 14.75C52.57 15.04 52.45 15.33 52.24 15.53C52.04 15.72 51.77 15.82 51.49 15.81C51.22 15.83 50.95 15.73 50.75 15.53C50.57 15.32 50.49 15.03 50.52 14.75L50.85 10.54C50.94 9.23 50.46 8.57 49.41 8.57C48.88 8.54 48.37 8.75 48 9.16C47.63 9.61 47.43 10.19 47.41 10.79L47.1 14.75C47.09 15.04 46.97 15.33 46.77 15.53C46.56 15.72 46.29 15.82 46.01 15.81C45.74 15.83 45.48 15.73 45.28 15.53C45.11 15.31 45.02 15.03 45.04 14.75L45.57 7.86C45.57 7.57 45.69 7.3 45.9 7.12C46.12 6.94 46.39 6.84 46.67 6.85C46.92 6.83 47.17 6.93 47.36 7.12C47.53 7.31 47.6 7.57 47.55 7.82L47.54 8.16C47.82 7.73 48.2 7.39 48.64 7.17C49.12 6.93 49.65 6.81 50.18 6.81C50.93 6.76 51.67 7.04 52.22 7.6L52.22 7.6ZM19.95 6.57C19.11 5.18 17.44 4.68 16.06 5.41C14.59 6.22 14 8.17 14.75 9.76C15.17 10.67 15.97 11.31 16.9 11.48C16.78 15.32 13.82 18.34 10.26 18.22C6.82 18.1 4.07 15.06 4.04 11.33C4.03 8.45 5.68 5.88 8.18 4.88C8.66 4.69 8.93 4.15 8.82 3.61L8.81 3.57C8.69 2.98 9.04 2.4 9.58 2.27C9.62 2.26 9.67 2.25 9.71 2.25C9.96 2.22 10.22 2.21 10.47 2.21C10.78 2.21 11.1 2.23 11.4 2.26C11.97 2.33 12.47 1.89 12.53 1.28C12.54 1.26 12.54 1.24 12.54 1.22C12.55 0.62 12.13 0.11 11.58 0.06C11.21 0.02 10.84 0 10.47 0C4.68 0 0 5.07 0 11.33C0 17.59 4.68 22.66 10.47 22.66C16.25 22.66 20.94 17.59 20.94 11.33C20.94 10.22 20.74 7.83 19.95 6.57Z" fill="#FFFFFF" fill-opacity="1.000000" fill-rule="evenodd"/>
	<path d="M14.42 0.85C15.02 0.85 15.5 1.38 15.5 2.03C15.5 2.68 15.02 3.2 14.42 3.2C13.82 3.2 13.33 2.68 13.33 2.03C13.33 1.38 13.82 0.85 14.42 0.85ZM61.13 10.25C61.72 10.25 62.21 10.78 62.21 11.43C62.21 12.08 61.72 12.6 61.13 12.6C60.53 12.6 60.04 12.08 60.04 11.43C60.04 10.78 60.53 10.25 61.13 10.25ZM74.83 7.49C74.94 7.62 74.99 7.78 74.99 7.97C74.99 8.21 74.91 8.43 74.74 8.62L70.1 14.12L74.07 14.12C74.27 14.12 74.43 14.18 74.55 14.29C74.66 14.4 74.71 14.55 74.71 14.74C74.71 14.96 74.65 15.13 74.53 15.24C74.41 15.36 74.23 15.42 73.99 15.42L68.64 15.42C68.45 15.42 68.3 15.36 68.19 15.23C68.08 15.11 68.03 14.96 68.03 14.77C68.03 14.55 68.11 14.34 68.27 14.15L72.93 8.6L69.23 8.6C69.02 8.6 68.86 8.54 68.75 8.43C68.64 8.32 68.58 8.17 68.58 7.98C68.58 7.53 68.82 7.3 69.29 7.3L74.38 7.3C74.57 7.3 74.72 7.37 74.83 7.49L74.83 7.49ZM78.04 8.93C77.67 9.33 77.43 9.91 77.33 10.68L81.29 10.68C81.31 9.91 81.17 9.33 80.86 8.93C80.54 8.53 80.1 8.33 79.53 8.33C78.9 8.33 78.4 8.53 78.04 8.93ZM82.49 11.47C82.38 11.58 82.23 11.64 82.05 11.64L77.27 11.64C77.28 12.46 77.47 13.1 77.85 13.55C78.23 14 78.78 14.22 79.5 14.22C80.21 14.22 80.88 14 81.49 13.55C81.61 13.48 81.72 13.44 81.83 13.44C81.97 13.44 82.09 13.5 82.18 13.62C82.28 13.74 82.32 13.89 82.32 14.05C82.32 14.31 82.22 14.52 82.02 14.7C81.74 14.95 81.36 15.15 80.87 15.3C80.38 15.46 79.9 15.53 79.4 15.53C78.67 15.53 78.02 15.37 77.47 15.05C76.91 14.73 76.49 14.27 76.18 13.67C75.88 13.07 75.73 12.38 75.73 11.59C75.73 10.72 75.89 9.94 76.2 9.26C76.51 8.57 76.95 8.05 77.51 7.67C78.08 7.29 78.73 7.1 79.46 7.1C80.49 7.1 81.28 7.43 81.82 8.09C82.37 8.75 82.65 9.71 82.65 10.96C82.65 11.18 82.59 11.35 82.48 11.47L82.49 11.47ZM89.06 7.27C89.18 7.38 89.24 7.54 89.24 7.75C89.24 8.26 88.98 8.54 88.47 8.58L88.06 8.63C87.35 8.71 86.82 8.93 86.48 9.3C86.14 9.66 85.94 10.2 85.89 10.91L85.6 14.7C85.58 14.98 85.49 15.18 85.34 15.31C85.18 15.44 84.99 15.5 84.77 15.5C84.54 15.5 84.36 15.43 84.22 15.3C84.08 15.17 84.02 14.97 84.05 14.7L84.55 7.9C84.56 7.66 84.65 7.47 84.81 7.34C84.98 7.2 85.17 7.14 85.38 7.14C85.59 7.14 85.75 7.2 85.87 7.33C86 7.46 86.05 7.64 86.04 7.88L86 8.57C86.51 7.71 87.32 7.24 88.42 7.15L88.59 7.14C88.79 7.12 88.94 7.16 89.06 7.27ZM94.77 13.34C95.15 12.76 95.34 11.99 95.34 11.01C95.34 10.18 95.16 9.54 94.81 9.11C94.45 8.67 93.95 8.45 93.29 8.45C92.57 8.45 92.03 8.74 91.65 9.31C91.27 9.89 91.08 10.67 91.08 11.64C91.08 12.49 91.26 13.12 91.61 13.56C91.96 13.99 92.47 14.2 93.14 14.2C93.85 14.2 94.39 13.91 94.77 13.34ZM91.22 15.05C90.67 14.73 90.25 14.27 89.96 13.67C89.66 13.07 89.51 12.38 89.51 11.59C89.51 10.68 89.67 9.89 89.98 9.22C90.29 8.54 90.73 8.02 91.3 7.65C91.87 7.29 92.53 7.1 93.28 7.1C94.01 7.1 94.65 7.27 95.2 7.59C95.74 7.92 96.16 8.38 96.46 8.97C96.76 9.57 96.9 10.26 96.9 11.06C96.9 11.97 96.75 12.76 96.44 13.43C96.12 14.1 95.68 14.62 95.11 14.98C94.54 15.35 93.88 15.53 93.12 15.53C92.4 15.53 91.76 15.37 91.22 15.05ZM104.54 8.93C104.17 9.33 103.94 9.91 103.83 10.68L107.8 10.68C107.82 9.91 107.67 9.33 107.36 8.93C107.05 8.53 106.61 8.33 106.03 8.33C105.41 8.33 104.91 8.53 104.54 8.93ZM108.99 11.47C108.88 11.58 108.74 11.64 108.55 11.64L103.77 11.64C103.78 12.46 103.98 13.1 104.36 13.55C104.74 14 105.29 14.22 106 14.22C106.72 14.22 107.38 14 108 13.55C108.11 13.48 108.23 13.44 108.34 13.44C108.48 13.44 108.6 13.5 108.69 13.62C108.78 13.74 108.83 13.89 108.83 14.05C108.83 14.31 108.73 14.52 108.52 14.7C108.25 14.95 107.86 15.15 107.38 15.3C106.89 15.46 106.4 15.53 105.91 15.53C105.17 15.53 104.53 15.37 103.97 15.05C103.42 14.73 102.99 14.27 102.69 13.67C102.39 13.07 102.24 12.38 102.24 11.59C102.24 10.72 102.39 9.94 102.71 9.26C103.02 8.57 103.46 8.05 104.02 7.67C104.58 7.29 105.23 7.1 105.97 7.1C106.99 7.1 107.78 7.43 108.33 8.09C108.88 8.75 109.15 9.71 109.15 10.96C109.15 11.18 109.1 11.35 108.99 11.47ZM113.59 5.51C113.33 5.82 113.17 6.28 113.12 6.89L113.09 7.3L114.61 7.3C114.82 7.3 114.97 7.36 115.08 7.47C115.19 7.58 115.24 7.73 115.24 7.92C115.24 8.37 115.01 8.6 114.54 8.6L113 8.6L112.55 14.7C112.54 14.97 112.46 15.17 112.3 15.3C112.14 15.43 111.95 15.5 111.74 15.5C111.52 15.5 111.35 15.43 111.2 15.3C111.06 15.17 110.99 14.97 111 14.7L111.45 8.6L110.54 8.6C110.34 8.6 110.18 8.54 110.06 8.43C109.95 8.32 109.89 8.17 109.89 7.98C109.89 7.76 109.96 7.59 110.08 7.48C110.2 7.36 110.38 7.3 110.62 7.3L111.54 7.3L111.56 7.09C111.72 4.96 112.78 3.83 114.74 3.7L115.06 3.68C115.6 3.65 115.87 3.84 115.87 4.26C115.87 4.47 115.82 4.63 115.7 4.74C115.59 4.85 115.43 4.92 115.21 4.94L114.8 4.97C114.25 5.02 113.85 5.2 113.59 5.51ZM119.52 5.51C119.26 5.82 119.11 6.28 119.05 6.89L119.02 7.3L120.55 7.3C120.75 7.3 120.91 7.36 121.02 7.47C121.12 7.58 121.18 7.73 121.18 7.92C121.18 8.37 120.94 8.6 120.47 8.6L118.93 8.6L118.49 14.7C118.48 14.97 118.39 15.17 118.23 15.3C118.07 15.43 117.89 15.5 117.67 15.5C117.46 15.5 117.28 15.43 117.13 15.3C116.99 15.17 116.92 14.97 116.93 14.7L117.38 8.6L116.47 8.6C116.27 8.6 116.11 8.54 116 8.43C115.88 8.32 115.83 8.17 115.83 7.98C115.83 7.76 115.89 7.59 116.01 7.48C116.13 7.36 116.32 7.3 116.55 7.3L117.47 7.3L117.49 7.09C117.65 4.96 118.71 3.83 120.67 3.7L120.99 3.68C121.53 3.65 121.81 3.84 121.81 4.26C121.81 4.47 121.75 4.63 121.64 4.74C121.52 4.85 121.36 4.92 121.15 4.94L120.73 4.97C120.19 5.02 119.79 5.2 119.52 5.51ZM126.79 13.34C127.16 12.76 127.35 11.99 127.35 11.01C127.35 10.18 127.18 9.54 126.82 9.11C126.47 8.67 125.97 8.45 125.31 8.45C124.59 8.45 124.05 8.74 123.67 9.31C123.29 9.89 123.1 10.67 123.1 11.64C123.1 12.49 123.27 13.12 123.63 13.56C123.98 13.99 124.49 14.2 125.16 14.2C125.86 14.2 126.41 13.91 126.79 13.34ZM123.24 15.05C122.69 14.73 122.27 14.27 121.98 13.67C121.68 13.07 121.53 12.38 121.53 11.59C121.53 10.68 121.69 9.89 122 9.22C122.31 8.54 122.75 8.02 123.32 7.65C123.89 7.29 124.55 7.1 125.29 7.1C126.03 7.1 126.67 7.27 127.22 7.59C127.76 7.92 128.18 8.38 128.48 8.97C128.77 9.57 128.92 10.26 128.92 11.06C128.92 11.97 128.76 12.76 128.45 13.43C128.14 14.1 127.7 14.62 127.13 14.98C126.56 15.35 125.9 15.53 125.14 15.53C124.41 15.53 123.78 15.37 123.24 15.05L123.24 15.05ZM135.34 7.27C135.46 7.38 135.52 7.54 135.52 7.75C135.52 8.26 135.26 8.54 134.75 8.58L134.33 8.63C133.63 8.71 133.1 8.93 132.76 9.3C132.41 9.66 132.22 10.2 132.17 10.91L131.87 14.7C131.85 14.98 131.77 15.18 131.61 15.31C131.46 15.44 131.27 15.5 131.04 15.5C130.82 15.5 130.64 15.43 130.5 15.3C130.36 15.17 130.3 14.97 130.32 14.7L130.83 7.9C130.84 7.66 130.93 7.47 131.09 7.34C131.25 7.2 131.44 7.14 131.66 7.14C131.86 7.14 132.03 7.2 132.15 7.33C132.27 7.46 132.33 7.64 132.32 7.88L132.27 8.57C132.78 7.71 133.59 7.24 134.7 7.15L134.87 7.14C135.06 7.12 135.22 7.16 135.34 7.27ZM138.87 12.41C138.86 12.47 138.86 12.57 138.86 12.71C138.86 13.21 138.96 13.58 139.17 13.85C139.38 14.11 139.68 14.24 140.06 14.24C140.18 14.24 140.3 14.23 140.43 14.21C140.55 14.19 140.65 14.19 140.72 14.19C140.84 14.19 140.94 14.24 141.01 14.34C141.08 14.45 141.12 14.6 141.12 14.78C141.12 15.06 141.02 15.26 140.82 15.37C140.62 15.48 140.27 15.53 139.77 15.53C138.99 15.53 138.38 15.3 137.95 14.84C137.52 14.37 137.31 13.72 137.31 12.87C137.31 12.7 137.31 12.56 137.32 12.46L137.6 8.6L136.69 8.6C136.49 8.6 136.33 8.54 136.22 8.43C136.1 8.32 136.05 8.17 136.05 7.97C136.05 7.76 136.11 7.59 136.23 7.48C136.36 7.36 136.53 7.3 136.77 7.3L137.69 7.3L137.81 5.57C137.84 5.34 137.92 5.15 138.08 5.01C138.23 4.86 138.42 4.79 138.64 4.79C138.88 4.79 139.06 4.86 139.2 5.01C139.33 5.15 139.39 5.35 139.37 5.59L139.24 7.3L140.77 7.3C140.96 7.3 141.11 7.36 141.23 7.47C141.34 7.58 141.39 7.73 141.39 7.92C141.39 8.37 141.16 8.6 140.69 8.6L139.15 8.6L138.87 12.41ZM152.56 7.82C153 8.3 153.21 9 153.21 9.93C153.21 10.15 153.21 10.32 153.2 10.43L152.89 14.7C152.87 14.96 152.78 15.15 152.64 15.29C152.49 15.43 152.3 15.5 152.06 15.5C151.83 15.5 151.64 15.43 151.51 15.29C151.37 15.15 151.32 14.96 151.34 14.7L151.65 10.51C151.66 10.43 151.66 10.32 151.66 10.16C151.66 9.03 151.16 8.47 150.16 8.47C149.52 8.47 149.02 8.67 148.64 9.08C148.27 9.49 148.06 10.06 148 10.79L147.71 14.7C147.69 14.96 147.61 15.15 147.46 15.29C147.31 15.43 147.12 15.5 146.88 15.5C146.65 15.5 146.46 15.43 146.34 15.29C146.21 15.15 146.15 14.96 146.16 14.7L146.67 7.9C146.68 7.67 146.76 7.48 146.93 7.34C147.09 7.21 147.29 7.14 147.51 7.14C147.73 7.14 147.9 7.2 148.02 7.34C148.14 7.47 148.2 7.65 148.19 7.88L148.14 8.47C148.4 8.03 148.74 7.7 149.18 7.46C149.62 7.22 150.11 7.1 150.65 7.1C151.49 7.1 152.13 7.34 152.56 7.82ZM159.99 13.34C160.37 12.76 160.56 11.99 160.56 11.01C160.56 10.18 160.38 9.54 160.03 9.11C159.68 8.67 159.17 8.45 158.52 8.45C157.8 8.45 157.25 8.74 156.87 9.31C156.5 9.89 156.3 10.67 156.3 11.64C156.3 12.49 156.48 13.12 156.83 13.56C157.19 13.99 157.7 14.2 158.36 14.2C159.07 14.2 159.61 13.91 159.99 13.34L159.99 13.34ZM156.44 15.05C155.9 14.73 155.48 14.27 155.18 13.67C154.89 13.07 154.74 12.38 154.74 11.59C154.74 10.68 154.89 9.89 155.21 9.22C155.52 8.54 155.96 8.02 156.53 7.65C157.1 7.29 157.75 7.1 158.5 7.1C159.24 7.1 159.88 7.27 160.42 7.59C160.97 7.92 161.39 8.38 161.68 8.97C161.98 9.57 162.13 10.26 162.13 11.06C162.13 11.97 161.97 12.76 161.66 13.43C161.35 14.1 160.91 14.62 160.34 14.98C159.77 15.35 159.11 15.53 158.35 15.53C157.62 15.53 156.99 15.37 156.44 15.05ZM169.92 7.82C170.36 8.3 170.57 9 170.57 9.93C170.57 10.15 170.57 10.32 170.56 10.43L170.25 14.7C170.23 14.96 170.15 15.15 170 15.29C169.85 15.43 169.66 15.5 169.42 15.5C169.19 15.5 169 15.43 168.87 15.29C168.73 15.15 168.68 14.96 168.7 14.7L169.01 10.51C169.02 10.43 169.02 10.32 169.02 10.16C169.02 9.03 168.52 8.47 167.52 8.47C166.88 8.47 166.38 8.67 166 9.08C165.63 9.49 165.42 10.06 165.36 10.79L165.07 14.7C165.05 14.96 164.97 15.15 164.82 15.29C164.67 15.43 164.48 15.5 164.24 15.5C164.01 15.5 163.82 15.43 163.7 15.29C163.57 15.15 163.51 14.96 163.52 14.7L164.03 7.9C164.04 7.67 164.13 7.48 164.29 7.34C164.45 7.21 164.65 7.14 164.87 7.14C165.09 7.14 165.26 7.2 165.38 7.34C165.5 7.47 165.56 7.65 165.55 7.88L165.5 8.47C165.76 8.03 166.11 7.7 166.54 7.46C166.97 7.22 167.46 7.1 168.01 7.1C168.85 7.1 169.49 7.34 169.92 7.82ZM177.75 13.37C178.13 12.82 178.32 12.05 178.32 11.08C178.32 10.24 178.14 9.59 177.79 9.13C177.43 8.68 176.92 8.45 176.25 8.45C175.57 8.45 175.04 8.73 174.65 9.29C174.26 9.85 174.07 10.61 174.07 11.58C174.07 12.43 174.25 13.08 174.61 13.53C174.96 13.98 175.48 14.2 176.14 14.2C176.83 14.2 177.36 13.93 177.75 13.37ZM178.38 7.59C178.86 7.91 179.24 8.36 179.51 8.96C179.77 9.55 179.91 10.24 179.91 11.03C179.91 11.91 179.76 12.7 179.46 13.38C179.17 14.06 178.75 14.59 178.21 14.97C177.67 15.34 177.05 15.53 176.36 15.53C175.77 15.53 175.27 15.4 174.84 15.13C174.42 14.87 174.09 14.49 173.87 14L173.82 14.7C173.81 14.96 173.73 15.15 173.58 15.29C173.42 15.43 173.23 15.5 173.01 15.5C172.78 15.5 172.6 15.43 172.47 15.29C172.33 15.15 172.27 14.96 172.28 14.7L173.05 4.38C173.06 4.14 173.15 3.96 173.31 3.81C173.48 3.67 173.67 3.59 173.9 3.59C174.12 3.59 174.3 3.66 174.43 3.79C174.56 3.93 174.62 4.11 174.61 4.34L174.3 8.42C174.55 8.01 174.89 7.69 175.32 7.45C175.75 7.22 176.21 7.1 176.71 7.1C177.34 7.1 177.89 7.26 178.38 7.59ZM185.42 13.67C185.79 13.26 186 12.73 186.05 12.09L186.08 11.63L185.65 11.63C184.89 11.63 184.3 11.67 183.87 11.76C183.44 11.85 183.13 11.99 182.95 12.19C182.76 12.39 182.67 12.67 182.67 13.02C182.67 13.41 182.79 13.72 183.05 13.95C183.3 14.17 183.64 14.29 184.07 14.29C184.6 14.29 185.05 14.08 185.42 13.67L185.42 13.67ZM187.68 9.96C187.68 10.17 187.68 10.34 187.66 10.45L187.36 14.74C187.35 14.98 187.27 15.17 187.13 15.3C187 15.43 186.81 15.5 186.59 15.5C186.36 15.5 186.18 15.43 186.05 15.28C185.92 15.13 185.86 14.93 185.88 14.7L185.91 14.14C185.7 14.59 185.4 14.94 185.02 15.18C184.64 15.41 184.2 15.53 183.7 15.53C182.95 15.53 182.33 15.31 181.85 14.88C181.36 14.44 181.12 13.88 181.12 13.19C181.12 12.57 181.27 12.08 181.56 11.72C181.86 11.36 182.33 11.09 182.99 10.93C183.64 10.76 184.51 10.68 185.6 10.68L186.16 10.68L186.19 10.26C186.23 9.63 186.13 9.17 185.88 8.87C185.64 8.58 185.24 8.43 184.68 8.43C184.01 8.43 183.26 8.68 182.44 9.17C182.35 9.22 182.25 9.25 182.13 9.25C181.98 9.25 181.85 9.19 181.75 9.07C181.65 8.94 181.59 8.8 181.59 8.63C181.59 8.37 181.72 8.15 181.98 7.97C182.35 7.7 182.78 7.49 183.29 7.34C183.8 7.18 184.31 7.1 184.84 7.1C186.73 7.1 187.68 8.06 187.68 9.96ZM195.8 7.82C196.23 8.3 196.45 9 196.45 9.93C196.45 10.15 196.45 10.32 196.44 10.43L196.13 14.7C196.11 14.96 196.02 15.15 195.88 15.29C195.73 15.43 195.54 15.5 195.3 15.5C195.06 15.5 194.88 15.43 194.75 15.29C194.61 15.15 194.56 14.96 194.58 14.7L194.88 10.51C194.89 10.43 194.9 10.32 194.9 10.16C194.9 9.03 194.4 8.47 193.39 8.47C192.76 8.47 192.25 8.67 191.88 9.08C191.51 9.49 191.29 10.06 191.24 10.79L190.95 14.7C190.93 14.96 190.85 15.15 190.7 15.29C190.55 15.43 190.36 15.5 190.12 15.5C189.89 15.5 189.7 15.43 189.58 15.29C189.45 15.15 189.39 14.96 189.4 14.7L189.91 7.9C189.91 7.67 190 7.48 190.17 7.34C190.33 7.21 190.53 7.14 190.75 7.14C190.97 7.14 191.13 7.2 191.26 7.34C191.38 7.47 191.44 7.65 191.43 7.88L191.38 8.47C191.64 8.03 191.98 7.7 192.42 7.46C192.85 7.22 193.34 7.1 193.89 7.1C194.73 7.1 195.36 7.34 195.8 7.82ZM204.43 14.24C204.56 14.37 204.62 14.53 204.62 14.72C204.62 14.92 204.54 15.1 204.38 15.27C204.22 15.43 204.04 15.52 203.85 15.52C203.66 15.52 203.5 15.43 203.36 15.27L199.96 11.63L199.73 14.72C199.71 14.97 199.62 15.17 199.47 15.3C199.32 15.43 199.13 15.5 198.92 15.5C198.69 15.5 198.51 15.43 198.36 15.28C198.22 15.14 198.16 14.94 198.18 14.69L198.93 4.39C198.94 4.14 199.03 3.94 199.19 3.81C199.36 3.68 199.54 3.61 199.76 3.61C199.99 3.61 200.17 3.68 200.3 3.82C200.43 3.96 200.49 4.16 200.48 4.43L200.01 10.93L203.63 7.42C203.78 7.26 203.94 7.19 204.13 7.19C204.31 7.19 204.47 7.26 204.61 7.41C204.75 7.56 204.82 7.73 204.82 7.92C204.82 8.12 204.74 8.29 204.59 8.45L201.67 11.23L204.43 14.24ZM216.24 3.74C216.33 3.83 216.36 3.96 216.35 4.12L216.06 8.02C216.04 8.37 215.88 8.55 215.59 8.55C215.46 8.55 215.36 8.5 215.29 8.41C215.22 8.33 215.18 8.19 215.2 8.02L215.38 5.53L214.33 7.45C214.26 7.58 214.19 7.67 214.12 7.72C214.05 7.77 213.96 7.8 213.86 7.8C213.77 7.8 213.69 7.77 213.63 7.72C213.57 7.66 213.52 7.58 213.47 7.45L212.68 5.6L212.5 8.02C212.49 8.19 212.45 8.33 212.36 8.41C212.28 8.5 212.16 8.55 212.02 8.55C211.89 8.55 211.78 8.5 211.71 8.41C211.64 8.33 211.61 8.19 211.62 8.02L211.91 4.12C211.92 3.96 211.97 3.83 212.07 3.74C212.17 3.65 212.28 3.6 212.4 3.6C212.59 3.6 212.73 3.72 212.83 3.96L213.93 6.65L215.43 3.96C215.57 3.72 215.73 3.6 215.92 3.6C216.05 3.6 216.16 3.65 216.24 3.74L216.24 3.74ZM211.35 4.06C211.35 4.37 211.18 4.52 210.85 4.52L209.81 4.52L209.56 8.03C209.55 8.19 209.5 8.32 209.39 8.41C209.29 8.5 209.17 8.55 209.02 8.55C208.88 8.55 208.77 8.5 208.68 8.41C208.59 8.32 208.55 8.19 208.56 8.03L208.82 4.52L207.79 4.52C207.5 4.52 207.36 4.38 207.36 4.11C207.36 3.8 207.52 3.65 207.84 3.65L210.92 3.65C211.21 3.65 211.35 3.79 211.35 4.06Z" fill="#FFFFFF" fill-opacity="1.000000" fill-rule="evenodd"/>
</svg>
